<svg width="15" height="15" viewBox="0 0 15 15" fill="none" xmlns="http://www.w3.org/2000/svg">
<path d="M7.5 1.25C4.05375 1.25 1.25 4.05375 1.25 7.5V10.0894C1.25 10.7294 1.81062 11.25 2.5 11.25H3.125C3.29076 11.25 3.44973 11.1842 3.56694 11.0669C3.68415 10.9497 3.75 10.7908 3.75 10.625V7.41063C3.75 7.24486 3.68415 7.08589 3.56694 6.96868C3.44973 6.85147 3.29076 6.78563 3.125 6.78563H2.5575C2.905 4.36688 4.98625 2.5 7.5 2.5C10.0138 2.5 12.095 4.36688 12.4425 6.78563H11.875C11.7092 6.78563 11.5503 6.85147 11.4331 6.96868C11.3158 7.08589 11.25 7.24486 11.25 7.41063V11.25C11.25 11.9394 10.6894 12.5 10 12.5H8.75V11.875H6.25V13.75H10C11.3787 13.75 12.5 12.6287 12.5 11.25C13.1894 11.25 13.75 10.7294 13.75 10.0894V7.5C13.75 4.05375 10.9462 1.25 7.5 1.25Z" fill="white"/>
</svg>
