<svg width="16" height="16" viewBox="0 0 16 16" fill="none" xmlns="http://www.w3.org/2000/svg">
<path d="M10.5601 11.2134V11.1801C10.5001 11.1001 10.4468 11.0134 10.3935 10.9334L10.5601 11.2134ZM15.2668 9.76677C15.2668 10.0934 15.2668 10.3801 15.2668 10.5934C15.2758 11.0527 15.1824 11.5081 14.9935 11.9268C14.8023 12.3376 14.4846 12.6764 14.0868 12.8934C13.8039 13.0462 13.4883 13.1285 13.1668 13.1334H13.1135C12.7697 13.1302 12.4316 13.0456 12.1268 12.8868C11.8512 12.739 11.6013 12.5477 11.3868 12.3201C11.0738 11.9822 10.7926 11.6162 10.5468 11.2268L10.3801 10.9801C10.2637 10.8032 10.1087 10.6551 9.92679 10.5468C9.73501 10.4312 9.52556 10.3479 9.30679 10.3001C8.87963 10.1916 8.44084 10.1357 8.00013 10.1334C7.3391 10.0861 6.6772 10.2125 6.08013 10.5001C5.89819 10.6084 5.74319 10.7566 5.62679 10.9334C5.42013 11.2401 5.19346 11.6001 4.91346 11.9401C4.63168 12.3053 4.28051 12.6111 3.88013 12.8401C3.57529 12.999 3.2372 13.0835 2.89346 13.0868H2.83346C2.51422 13.0808 2.20105 12.9985 1.92013 12.8468C1.65675 12.7036 1.42891 12.5031 1.25346 12.2601C0.912375 11.7625 0.737366 11.1698 0.75346 10.5668C0.75346 10.3668 0.75346 10.1068 0.75346 9.80677C0.747395 9.11432 0.780782 8.42208 0.85346 7.73343C0.929448 6.98059 1.11823 6.24346 1.41346 5.54677V5.5001C1.69778 4.77095 2.18327 4.1375 2.81346 3.67343C3.46707 3.18671 4.25857 2.92054 5.07346 2.91343C5.46174 2.90446 5.84831 2.96776 6.21346 3.1001C6.36859 3.1698 6.51992 3.24769 6.66679 3.33343L7.06679 3.54677C7.23925 3.64456 7.4353 3.693 7.63346 3.68677H8.35346C8.5559 3.6934 8.75634 3.64502 8.93346 3.54677L9.33346 3.33343C9.48279 3.25201 9.63634 3.17858 9.79346 3.11343C10.1586 2.9811 10.5452 2.9178 10.9335 2.92677C11.7484 2.93387 12.5399 3.20004 13.1935 3.68677C13.8218 4.14865 14.309 4.77661 14.6001 5.5001C14.89 6.18426 15.0765 6.90773 15.1535 7.64677C15.2323 8.34171 15.2702 9.0407 15.2668 9.7401V9.76677ZM13.9335 9.76677C13.9399 9.13658 13.9087 8.50657 13.8401 7.8801C13.782 7.26259 13.6291 6.65772 13.3868 6.08677V6.0001C13.1879 5.4966 12.8533 5.05813 12.4201 4.73343C11.9936 4.41635 11.4782 4.24143 10.9468 4.23343C10.7207 4.22186 10.4944 4.25354 10.2801 4.32677C10.1616 4.37602 10.0459 4.43166 9.93346 4.49343L9.54013 4.7001C9.17378 4.89781 8.76305 4.99877 8.34679 4.99343H7.64013C7.22807 4.99917 6.82154 4.89811 6.46013 4.7001L6.06013 4.49343C5.94767 4.43166 5.83194 4.37602 5.71346 4.32677C5.4992 4.25354 5.27293 4.22186 5.04679 4.23343C4.51721 4.2401 4.0035 4.41522 3.58013 4.73343C3.16278 5.06151 2.84625 5.50049 2.66679 6.0001C2.42155 6.58441 2.26645 7.20256 2.20679 7.83343C2.13832 8.46884 2.10716 9.10771 2.11346 9.74677C2.11346 10.0334 2.11346 10.2934 2.11346 10.5068C2.07338 10.7869 2.11025 11.0727 2.22013 11.3334C2.26651 11.4714 2.35679 11.5904 2.47717 11.6723C2.59755 11.7541 2.74142 11.7944 2.88679 11.7868C3.01551 11.785 3.14168 11.7506 3.25346 11.6868C3.41054 11.5937 3.55037 11.4741 3.66679 11.3334C3.98257 10.9772 4.26592 10.5934 4.51346 10.1868C4.73825 9.84154 5.03645 9.55017 5.38679 9.33343C5.69213 9.1481 6.02526 9.01304 6.37346 8.93343C6.90764 8.81887 7.45442 8.77405 8.00013 8.8001C8.90615 8.7431 9.81035 8.93686 10.6135 9.3601C10.9617 9.57108 11.2597 9.85546 11.4868 10.1934L11.3335 9.9201L11.5201 10.1934C11.7268 10.5134 11.9401 10.8601 12.1535 11.1001C12.3205 11.3246 12.5315 11.5129 12.7735 11.6534C12.8849 11.7181 13.0113 11.7526 13.1401 11.7534C13.2537 11.7524 13.3656 11.725 13.4668 11.6734C13.5574 11.6231 13.635 11.5523 13.6935 11.4668C13.8697 11.2008 13.9562 10.8854 13.9401 10.5668C13.9268 10.3334 13.9335 10.0534 13.9335 9.7401V9.76677ZM6.00013 6.30677H5.60013V5.90677C5.60013 5.74764 5.53691 5.59502 5.42439 5.4825C5.31187 5.36998 5.15926 5.30677 5.00013 5.30677C4.841 5.30677 4.68838 5.36998 4.57586 5.4825C4.46334 5.59502 4.40013 5.74764 4.40013 5.90677V6.30677H4.00013C3.841 6.30677 3.68838 6.36998 3.57586 6.4825C3.46334 6.59502 3.40013 6.74764 3.40013 6.90677C3.40013 7.0659 3.46334 7.21851 3.57586 7.33103C3.68838 7.44355 3.841 7.50677 4.00013 7.50677H4.40013V7.90677C4.40013 8.0659 4.46334 8.21851 4.57586 8.33103C4.68838 8.44355 4.841 8.50677 5.00013 8.50677C5.15926 8.50677 5.31187 8.44355 5.42439 8.33103C5.53691 8.21851 5.60013 8.0659 5.60013 7.90677V7.50677H6.00013C6.15926 7.50677 6.31187 7.44355 6.42439 7.33103C6.53691 7.21851 6.60013 7.0659 6.60013 6.90677C6.60013 6.74764 6.53691 6.59502 6.42439 6.4825C6.31187 6.36998 6.15926 6.30677 6.00013 6.30677ZM10.6668 5.6401C10.5175 5.63878 10.3712 5.68184 10.2465 5.76381C10.1217 5.84578 10.0241 5.96296 9.96607 6.1005C9.90803 6.23803 9.89215 6.3897 9.92047 6.53627C9.94878 6.68284 10.02 6.81769 10.1251 6.92372C10.2302 7.02974 10.3644 7.10215 10.5107 7.13177C10.657 7.16138 10.8088 7.14685 10.9469 7.09004C11.0849 7.03322 11.2029 6.93667 11.286 6.81265C11.3691 6.68862 11.4135 6.54271 11.4135 6.39343C11.4066 6.19944 11.3251 6.01559 11.186 5.88021C11.0469 5.74482 10.8609 5.66836 10.6668 5.66677V5.6401ZM12.1068 7.1401C11.9201 7.15772 11.7467 7.24436 11.6204 7.38306C11.4942 7.52176 11.4242 7.70256 11.4242 7.8901C11.4242 8.07764 11.4942 8.25844 11.6204 8.39714C11.7467 8.53584 11.9201 8.62248 12.1068 8.6401C12.2112 8.64996 12.3166 8.63789 12.4161 8.60469C12.5156 8.57148 12.607 8.51786 12.6846 8.44725C12.7622 8.37665 12.8242 8.29062 12.8666 8.19468C12.909 8.09874 12.9309 7.995 12.9309 7.8901C12.9309 7.7852 12.909 7.68146 12.8666 7.58552C12.8242 7.48958 12.7622 7.40355 12.6846 7.33295C12.607 7.26234 12.5156 7.20872 12.4161 7.17551C12.3166 7.1423 12.2112 7.13024 12.1068 7.1401Z" fill="white"/>
</svg>
