<svg width="15" height="15" viewBox="0 0 15 15" fill="none" xmlns="http://www.w3.org/2000/svg">
<path d="M7.4999 5.62497C7.12906 5.62497 6.76655 5.73494 6.45821 5.94097C6.14987 6.147 5.90954 6.43983 5.76763 6.78244C5.62572 7.12505 5.58858 7.50205 5.66093 7.86577C5.73328 8.22948 5.91186 8.56357 6.17408 8.8258C6.4363 9.08802 6.7704 9.2666 7.13411 9.33895C7.49782 9.41129 7.87482 9.37416 8.21744 9.23225C8.56005 9.09033 8.85288 8.85001 9.05891 8.54167C9.26494 8.23332 9.3749 7.87081 9.3749 7.49997C9.3749 7.00269 9.17736 6.52578 8.82573 6.17415C8.4741 5.82252 7.99719 5.62497 7.4999 5.62497ZM7.4999 8.12497C7.37629 8.12497 7.25545 8.08832 7.15267 8.01964C7.04989 7.95096 6.96978 7.85335 6.92248 7.73915C6.87517 7.62495 6.8628 7.49928 6.88691 7.37804C6.91103 7.2568 6.97055 7.14544 7.05796 7.05803C7.14537 6.97062 7.25673 6.9111 7.37797 6.88698C7.49921 6.86287 7.62488 6.87524 7.73908 6.92255C7.85329 6.96985 7.9509 7.04996 8.01957 7.15274C8.08825 7.25552 8.1249 7.37636 8.1249 7.49997C8.1249 7.66573 8.05906 7.8247 7.94185 7.94191C7.82464 8.05912 7.66566 8.12497 7.4999 8.12497ZM13.0062 8.00622C12.9042 7.89067 12.8486 7.74154 12.8499 7.58747V7.41247C12.8486 7.2584 12.9042 7.10927 13.0062 6.99372L13.4062 6.54372C13.7127 6.1996 13.8818 5.75461 13.8812 5.29372C13.8781 4.96515 13.7921 4.64267 13.6312 4.35622L13.2812 3.73122C13.1165 3.44601 12.8796 3.2092 12.5943 3.04462C12.3091 2.88005 11.9855 2.79351 11.6562 2.79372C11.5302 2.79381 11.4046 2.80637 11.2812 2.83122L10.6937 2.94997H10.5624C10.4552 2.94831 10.3501 2.92041 10.2562 2.86872L10.0999 2.77497C9.979 2.71597 9.88036 2.61952 9.81865 2.49997L9.6249 1.93122C9.49525 1.56449 9.25475 1.24716 8.93672 1.0232C8.61869 0.799234 8.23888 0.679723 7.8499 0.681223H7.1499C6.76393 0.677878 6.38633 0.793736 6.06865 1.01298C5.75097 1.23222 5.5087 1.54416 5.3749 1.90622L5.18115 2.49997C5.13265 2.64513 5.03258 2.76744 4.8999 2.84372L4.7499 2.93747C4.65341 2.98832 4.54645 3.01613 4.4374 3.01872H4.3124L3.7499 2.86247C3.62645 2.83762 3.50084 2.82506 3.3749 2.82497C3.04152 2.81795 2.7123 2.89996 2.42117 3.06256C2.13003 3.22515 1.88753 3.46244 1.71865 3.74997L1.36865 4.37497C1.17249 4.71616 1.08866 5.11043 1.12904 5.50192C1.16943 5.8934 1.33197 6.26226 1.59365 6.55622L1.99365 7.00622C2.09557 7.12177 2.15122 7.2709 2.1499 7.42497V7.59997C2.15122 7.75404 2.09557 7.90317 1.99365 8.01872L1.59365 8.46872C1.28707 8.81285 1.11798 9.25784 1.11865 9.71872C1.12167 10.0473 1.20767 10.3698 1.36865 10.6562L1.71865 11.2812C1.88332 11.5664 2.12021 11.8032 2.40547 11.9678C2.69074 12.1324 3.01432 12.2189 3.34365 12.2187C3.46959 12.2186 3.5952 12.2061 3.71865 12.1812L4.30615 12.0625H4.43115C4.53834 12.0641 4.64349 12.092 4.7374 12.1437L4.89365 12.2375C5.02633 12.3138 5.1264 12.4361 5.1749 12.5812L5.3749 13.125C5.50456 13.4917 5.74506 13.809 6.06309 14.033C6.38112 14.257 6.76093 14.3765 7.1499 14.375H7.8499C8.23888 14.3765 8.61869 14.257 8.93672 14.033C9.25475 13.809 9.49525 13.4917 9.6249 13.125L9.81865 12.5562C9.86716 12.4111 9.96723 12.2888 10.0999 12.2125L10.2499 12.1187C10.3464 12.0679 10.4534 12.0401 10.5624 12.0375H10.6874L11.2812 12.1562C11.4046 12.1811 11.5302 12.1936 11.6562 12.1937C11.9855 12.1939 12.3091 12.1074 12.5943 11.9428C12.8796 11.7782 13.1165 11.5414 13.2812 11.2562L13.6312 10.6312C13.7921 10.3448 13.8781 10.0223 13.8812 9.69372C13.8818 9.23284 13.7127 8.78785 13.4062 8.44372L13.0062 8.00622ZM12.0749 8.83122L12.4749 9.28122C12.5768 9.39678 12.6325 9.5459 12.6312 9.69997C12.63 9.81003 12.5998 9.91783 12.5437 10.0125L12.1937 10.6375C12.1391 10.7319 12.0608 10.8105 11.9665 10.8653C11.8722 10.9201 11.7652 10.9493 11.6562 10.95H11.5312L10.9437 10.8312C10.4929 10.7378 10.0235 10.8134 9.6249 11.0437L9.4749 11.1312C9.07688 11.3601 8.77666 11.727 8.63115 12.1625L8.44365 12.7375C8.40173 12.8616 8.32184 12.9694 8.2153 13.0457C8.10875 13.122 7.98093 13.1628 7.8499 13.1625H7.1499C7.01888 13.1628 6.89106 13.122 6.78451 13.0457C6.67797 12.9694 6.59808 12.8616 6.55615 12.7375L6.36865 12.1625C6.22315 11.727 5.92293 11.3601 5.5249 11.1312L5.36865 11.0437C5.08534 10.8806 4.76431 10.7945 4.4374 10.7937C4.3094 10.7938 4.18172 10.8064 4.05615 10.8312L3.46865 10.95H3.34365C3.23352 10.9504 3.12523 10.9217 3.02975 10.8669C2.93426 10.812 2.85497 10.7329 2.7999 10.6375L2.45615 10.0125C2.39998 9.91783 2.3698 9.81003 2.36865 9.69997C2.36035 9.54911 2.40698 9.40035 2.4999 9.28122L2.8999 8.83122C3.20648 8.4871 3.37558 8.04211 3.3749 7.58122V7.40622C3.37558 6.94534 3.20648 6.50035 2.8999 6.15622L2.4999 5.71872C2.39799 5.60317 2.34234 5.45404 2.34365 5.29997C2.35445 5.1919 2.39322 5.0885 2.45615 4.99997L2.80615 4.37497C2.86069 4.28051 2.93899 4.20197 3.03329 4.14714C3.12758 4.09232 3.23458 4.06313 3.34365 4.06247H3.46865L4.05615 4.18122C4.18167 4.20637 4.30939 4.21893 4.4374 4.21872C4.76431 4.218 5.08534 4.13181 5.36865 3.96872L5.5249 3.88122C5.91826 3.65848 6.2179 3.30113 6.36865 2.87497L6.55615 2.29997C6.59808 2.17583 6.67797 2.06801 6.78451 1.99175C6.89106 1.91548 7.01888 1.87463 7.1499 1.87497H7.8499C7.98093 1.87463 8.10875 1.91548 8.2153 1.99175C8.32184 2.06801 8.40173 2.17583 8.44365 2.29997L8.63115 2.87497C8.77666 3.31043 9.07688 3.67737 9.4749 3.90622L9.63115 3.99372C9.91447 4.15681 10.2355 4.243 10.5624 4.24372C10.6904 4.24393 10.8181 4.23137 10.9437 4.20622L11.5312 4.08747H11.6562C11.7663 4.08704 11.8746 4.11571 11.9701 4.17058C12.0655 4.22546 12.1448 4.3046 12.1999 4.39997L12.5437 5.02497C12.5998 5.11962 12.63 5.22742 12.6312 5.33747C12.6325 5.49154 12.5768 5.64067 12.4749 5.75622L12.0749 6.20622C11.7683 6.55035 11.5992 6.99534 11.5999 7.45622V7.63122C11.5992 8.09211 11.7683 8.5371 12.0749 8.88122" fill="white"/>
</svg>
