<svg width="15" height="15" viewBox="0 0 15 15" fill="none" xmlns="http://www.w3.org/2000/svg">
<path d="M6.74375 10.1813C6.9875 10.425 7.38125 10.425 7.625 10.1813L9.86875 7.9375C9.92669 7.87968 9.97266 7.811 10.004 7.73539C10.0354 7.65978 10.0515 7.57873 10.0515 7.49687C10.0515 7.41502 10.0354 7.33397 10.004 7.25836C9.97266 7.18275 9.92669 7.11407 9.86875 7.05625L7.625 4.8125C7.50814 4.69564 7.34964 4.62999 7.18437 4.62999C7.01911 4.62999 6.86061 4.69564 6.74375 4.8125C6.62689 4.92936 6.56124 5.08786 6.56124 5.25312C6.56124 5.41839 6.62689 5.57689 6.74375 5.69375L7.91875 6.875H2.5C2.15625 6.875 1.875 7.15625 1.875 7.5C1.875 7.84375 2.15625 8.125 2.5 8.125H7.91875L6.74375 9.3C6.5 9.54375 6.50625 9.94375 6.74375 10.1813ZM11.875 1.875H3.125C2.79348 1.875 2.47554 2.0067 2.24112 2.24112C2.0067 2.47554 1.875 2.79348 1.875 3.125V5C1.875 5.34375 2.15625 5.625 2.5 5.625C2.84375 5.625 3.125 5.34375 3.125 5V3.75C3.125 3.40625 3.40625 3.125 3.75 3.125H11.25C11.5938 3.125 11.875 3.40625 11.875 3.75V11.25C11.875 11.5938 11.5938 11.875 11.25 11.875H3.75C3.40625 11.875 3.125 11.5938 3.125 11.25V10C3.125 9.65625 2.84375 9.375 2.5 9.375C2.15625 9.375 1.875 9.65625 1.875 10V11.875C1.875 12.5625 2.4375 13.125 3.125 13.125H11.875C12.5625 13.125 13.125 12.5625 13.125 11.875V3.125C13.125 2.4375 12.5625 1.875 11.875 1.875Z" fill="white"/>
</svg>
