<svg width="15" height="15" viewBox="0 0 15 15" fill="none" xmlns="http://www.w3.org/2000/svg">
<path d="M8.125 1.875C6.63316 1.875 5.20242 2.46763 4.14752 3.52252C3.09263 4.57742 2.5 6.00816 2.5 7.5H0.625L3.05625 9.93125L3.1 10.0188L5.625 7.5H3.75C3.75 5.08125 5.70625 3.125 8.125 3.125C10.5437 3.125 12.5 5.08125 12.5 7.5C12.5 9.91875 10.5437 11.875 8.125 11.875C6.91875 11.875 5.825 11.3813 5.0375 10.5875L4.15 11.475C4.67088 11.9988 5.2903 12.4142 5.97254 12.6974C6.65477 12.9806 7.38632 13.1259 8.125 13.125C9.61684 13.125 11.0476 12.5324 12.1025 11.4775C13.1574 10.4226 13.75 8.99184 13.75 7.5C13.75 6.00816 13.1574 4.57742 12.1025 3.52252C11.0476 2.46763 9.61684 1.875 8.125 1.875ZM7.5 5V8.125L10.1562 9.7L10.6375 8.89375L8.4375 7.5875V5H7.5Z" fill="white"/>
</svg>
