<svg width="15" height="15" viewBox="0 0 15 15" fill="none" xmlns="http://www.w3.org/2000/svg">
<path d="M7.5 1.25C6.67924 1.25 5.86651 1.41166 5.10823 1.72575C4.34994 2.03984 3.66095 2.50022 3.08058 3.08058C1.90848 4.25269 1.25 5.8424 1.25 7.5C1.25 9.1576 1.90848 10.7473 3.08058 11.9194C3.66095 12.4998 4.34994 12.9602 5.10823 13.2742C5.86651 13.5883 6.67924 13.75 7.5 13.75C9.1576 13.75 10.7473 13.0915 11.9194 11.9194C13.0915 10.7473 13.75 9.1576 13.75 7.5C13.75 6.67924 13.5883 5.86651 13.2742 5.10823C12.9602 4.34994 12.4998 3.66095 11.9194 3.08058C11.3391 2.50022 10.6501 2.03984 9.89177 1.72575C9.13349 1.41166 8.32076 1.25 7.5 1.25ZM4.41875 11.425C4.6875 10.8625 6.325 10.3125 7.5 10.3125C8.675 10.3125 10.3125 10.8625 10.5813 11.425C9.70586 12.1225 8.6193 12.5016 7.5 12.5C6.3375 12.5 5.26875 12.1 4.41875 11.425ZM11.475 10.5188C10.5813 9.43125 8.4125 9.0625 7.5 9.0625C6.5875 9.0625 4.41875 9.43125 3.525 10.5188C2.86012 9.65289 2.49979 8.59169 2.5 7.5C2.5 4.74375 4.74375 2.5 7.5 2.5C10.2563 2.5 12.5 4.74375 12.5 7.5C12.5 8.6375 12.1125 9.6875 11.475 10.5188ZM7.5 3.75C6.2875 3.75 5.3125 4.725 5.3125 5.9375C5.3125 7.15 6.2875 8.125 7.5 8.125C8.7125 8.125 9.6875 7.15 9.6875 5.9375C9.6875 4.725 8.7125 3.75 7.5 3.75ZM7.5 6.875C7.25136 6.875 7.0129 6.77623 6.83709 6.60041C6.66127 6.4246 6.5625 6.18614 6.5625 5.9375C6.5625 5.68886 6.66127 5.4504 6.83709 5.27459C7.0129 5.09877 7.25136 5 7.5 5C7.74864 5 7.9871 5.09877 8.16291 5.27459C8.33873 5.4504 8.4375 5.68886 8.4375 5.9375C8.4375 6.18614 8.33873 6.4246 8.16291 6.60041C7.9871 6.77623 7.74864 6.875 7.5 6.875Z" fill="white"/>
</svg>
