<svg width="15" height="15" viewBox="0 0 15 15" fill="none" xmlns="http://www.w3.org/2000/svg">
<path fill-rule="evenodd" clip-rule="evenodd" d="M2.34375 2.34375C2.34375 2.87125 2.51813 3.35812 2.8125 3.75H1.71875C1.42867 3.75 1.15047 3.86523 0.945352 4.07035C0.740234 4.27547 0.625 4.55367 0.625 4.84375V6.40625C0.625 6.8425 0.880625 7.21875 1.25 7.395V12.6562C1.25 13.26 1.74 13.75 2.34375 13.75H12.6562C12.9463 13.75 13.2245 13.6348 13.4296 13.4296C13.6348 13.2245 13.75 12.9463 13.75 12.6562V7.395C14.1194 7.21937 14.375 6.8425 14.375 6.40625V4.84375C14.375 4.55367 14.2598 4.27547 14.0546 4.07035C13.8495 3.86523 13.5713 3.75 13.2812 3.75H12.1875C12.4487 3.40179 12.6077 2.98774 12.6468 2.55423C12.6859 2.12073 12.6035 1.6849 12.4088 1.29559C12.2142 0.906283 11.9149 0.578868 11.5447 0.350037C11.1744 0.121206 10.7478 0 10.3125 0C9.4025 0 8.165 0.563125 7.5 1.94375C6.835 0.563125 5.59688 0 4.6875 0C4.0659 0 3.46976 0.24693 3.03022 0.686468C2.59068 1.12601 2.34375 1.72215 2.34375 2.34375ZM7.0125 3.75C6.83313 1.56687 5.40625 0.9375 4.6875 0.9375C4.31454 0.9375 3.95685 1.08566 3.69313 1.34938C3.42941 1.6131 3.28125 1.97079 3.28125 2.34375C3.28125 2.71671 3.42941 3.0744 3.69313 3.33812C3.95685 3.60184 4.31454 3.75 4.6875 3.75H7.0125ZM12.8125 7.5V12.6562C12.8125 12.6977 12.796 12.7374 12.7667 12.7667C12.7374 12.796 12.6977 12.8125 12.6562 12.8125H7.96875V7.5H12.8125ZM7.03125 12.8125V7.5H2.1875V12.6562C2.1875 12.7425 2.2575 12.8125 2.34375 12.8125H7.03125ZM13.2812 6.5625C13.3227 6.5625 13.3624 6.54604 13.3917 6.51674C13.421 6.48743 13.4375 6.44769 13.4375 6.40625V4.84375C13.4375 4.80231 13.421 4.76257 13.3917 4.73326C13.3624 4.70396 13.3227 4.6875 13.2812 4.6875H7.96875V6.5625H13.2812ZM1.71875 6.5625H7.03125V4.6875H1.71875C1.67731 4.6875 1.63757 4.70396 1.60826 4.73326C1.57896 4.76257 1.5625 4.80231 1.5625 4.84375V6.40625C1.5625 6.4925 1.6325 6.5625 1.71875 6.5625ZM11.7188 2.34375C11.7188 2.71671 11.5706 3.0744 11.3069 3.33812C11.0431 3.60184 10.6855 3.75 10.3125 3.75H7.9875C8.16687 1.56687 9.59375 0.9375 10.3125 0.9375C10.6855 0.9375 11.0431 1.08566 11.3069 1.34938C11.5706 1.6131 11.7188 1.97079 11.7188 2.34375Z" fill="white"/>
</svg>
