<svg width="17" height="17" viewBox="0 0 17 17" fill="none" xmlns="http://www.w3.org/2000/svg">
<path d="M14.875 13.4583C14.875 13.6462 14.8004 13.8264 14.6675 13.9592C14.5347 14.092 14.3545 14.1667 14.1667 14.1667H2.83333C2.64547 14.1667 2.4653 14.092 2.33247 13.9592C2.19963 13.8264 2.125 13.6462 2.125 13.4583C2.125 13.2705 2.19963 13.0903 2.33247 12.9575C2.4653 12.8246 2.64547 12.75 2.83333 12.75H14.1667C14.3545 12.75 14.5347 12.8246 14.6675 12.9575C14.8004 13.0903 14.875 13.2705 14.875 13.4583ZM4.25 11.3333C4.43786 11.3333 4.61803 11.2587 4.75087 11.1259C4.88371 10.993 4.95833 10.8129 4.95833 10.625V5.66667C4.95833 5.47881 4.88371 5.29864 4.75087 5.1658C4.61803 5.03296 4.43786 4.95833 4.25 4.95833C4.06214 4.95833 3.88197 5.03296 3.74913 5.1658C3.61629 5.29864 3.54167 5.47881 3.54167 5.66667V10.625C3.54167 10.8129 3.61629 10.993 3.74913 11.1259C3.88197 11.2587 4.06214 11.3333 4.25 11.3333ZM7.08333 11.3333C7.27119 11.3333 7.45136 11.2587 7.5842 11.1259C7.71704 10.993 7.79167 10.8129 7.79167 10.625V2.83333C7.79167 2.64547 7.71704 2.4653 7.5842 2.33247C7.45136 2.19963 7.27119 2.125 7.08333 2.125C6.89547 2.125 6.7153 2.19963 6.58247 2.33247C6.44963 2.4653 6.375 2.64547 6.375 2.83333V10.625C6.375 10.8129 6.44963 10.993 6.58247 11.1259C6.7153 11.2587 6.89547 11.3333 7.08333 11.3333ZM12.75 11.3333C12.9379 11.3333 13.118 11.2587 13.2509 11.1259C13.3837 10.993 13.4583 10.8129 13.4583 10.625V4.95833C13.4583 4.77047 13.3837 4.5903 13.2509 4.45747C13.118 4.32463 12.9379 4.25 12.75 4.25C12.5621 4.25 12.382 4.32463 12.2491 4.45747C12.1163 4.5903 12.0417 4.77047 12.0417 4.95833V10.625C12.0417 10.8129 12.1163 10.993 12.2491 11.1259C12.382 11.2587 12.5621 11.3333 12.75 11.3333ZM9.91667 11.3333C10.1045 11.3333 10.2847 11.2587 10.4175 11.1259C10.5504 10.993 10.625 10.8129 10.625 10.625V8.5C10.625 8.31214 10.5504 8.13197 10.4175 7.99913C10.2847 7.86629 10.1045 7.79167 9.91667 7.79167C9.7288 7.79167 9.54864 7.86629 9.4158 7.99913C9.28296 8.13197 9.20833 8.31214 9.20833 8.5V10.625C9.20833 10.8129 9.28296 10.993 9.4158 11.1259C9.54864 11.2587 9.7288 11.3333 9.91667 11.3333Z" fill="white"/>
</svg>
