<svg width="15" height="15" viewBox="0 0 15 15" fill="none" xmlns="http://www.w3.org/2000/svg">
<path d="M9.375 9.375C9.87228 9.375 10.3492 9.17746 10.7008 8.82583C11.0525 8.47419 11.25 7.99728 11.25 7.5V3.75C11.25 3.25272 11.0525 2.77581 10.7008 2.42417C10.3492 2.07254 9.87228 1.875 9.375 1.875H3.125C2.62772 1.875 2.15081 2.07254 1.79917 2.42417C1.44754 2.77581 1.25 3.25272 1.25 3.75V7.5C1.25 7.99728 1.44754 8.47419 1.79917 8.82583C2.15081 9.17746 2.62772 9.375 3.125 9.375H3.75V10.625C3.74782 10.7356 3.77502 10.8447 3.82882 10.9414C3.88263 11.038 3.96111 11.1186 4.05625 11.175C4.15126 11.2299 4.25904 11.2587 4.36875 11.2587C4.47846 11.2587 4.58624 11.2299 4.68125 11.175L7.66875 9.375H9.375ZM5 9.5125V8.75C5.00131 8.6667 4.98594 8.58398 4.95482 8.5067C4.92369 8.42942 4.87743 8.35914 4.81875 8.3C4.69979 8.18529 4.54024 8.12237 4.375 8.125H3.125C2.95924 8.125 2.80027 8.05915 2.68306 7.94194C2.56585 7.82473 2.5 7.66576 2.5 7.5V3.75C2.5 3.58424 2.56585 3.42527 2.68306 3.30806C2.80027 3.19085 2.95924 3.125 3.125 3.125H9.375C9.54076 3.125 9.69973 3.19085 9.81694 3.30806C9.93415 3.42527 10 3.58424 10 3.75V7.5C10 7.66576 9.93415 7.82473 9.81694 7.94194C9.69973 8.05915 9.54076 8.125 9.375 8.125H7.5C7.38782 8.12503 7.27772 8.15526 7.18125 8.2125L5 9.5125ZM14.375 7.5V10C14.375 10.4973 14.1775 10.9742 13.8258 11.3258C13.4742 11.6775 12.9973 11.875 12.5 11.875H11.875V13.125C11.875 13.2411 11.8427 13.3548 11.7817 13.4536C11.7206 13.5523 11.6333 13.6321 11.5295 13.684C11.4257 13.7359 11.3095 13.7579 11.1939 13.7475C11.0783 13.7371 10.9679 13.6946 10.875 13.625L8.54375 11.875H7.5C7.33424 11.875 7.17527 11.8092 7.05806 11.6919C6.94085 11.5747 6.875 11.4158 6.875 11.25C6.875 11.0842 6.94085 10.9253 7.05806 10.8081C7.17527 10.6908 7.33424 10.625 7.5 10.625H8.75C8.82686 10.6275 8.90282 10.6422 8.975 10.6687L9.0375 10.7062L9.125 10.75L10.625 11.875V11.25C10.625 11.0842 10.6908 10.9253 10.8081 10.8081C10.9253 10.6908 11.0842 10.625 11.25 10.625H12.5C12.6658 10.625 12.8247 10.5592 12.9419 10.4419C13.0592 10.3247 13.125 10.1658 13.125 10V7.5C13.125 7.33424 13.0592 7.17527 12.9419 7.05806C12.8247 6.94085 12.6658 6.875 12.5 6.875C12.3342 6.875 12.1753 6.80915 12.0581 6.69194C11.9408 6.57473 11.875 6.41576 11.875 6.25C11.875 6.08424 11.9408 5.92527 12.0581 5.80806C12.1753 5.69085 12.3342 5.625 12.5 5.625C12.9973 5.625 13.4742 5.82254 13.8258 6.17417C14.1775 6.52581 14.375 7.00272 14.375 7.5Z" fill="white"/>
</svg>
