<svg width="15" height="15" viewBox="0 0 15 15" fill="none" xmlns="http://www.w3.org/2000/svg">
<path d="M10 7.5C10 7.66576 9.93415 7.82473 9.81694 7.94194C9.69973 8.05915 9.54076 8.125 9.375 8.125H5.625C5.45924 8.125 5.30027 8.05915 5.18306 7.94194C5.06585 7.82473 5 7.66576 5 7.5C5 7.33424 5.06585 7.17527 5.18306 7.05806C5.30027 6.94085 5.45924 6.875 5.625 6.875H9.375C9.54076 6.875 9.69973 6.94085 9.81694 7.05806C9.93415 7.17527 10 7.33424 10 7.5ZM7.5 9.375H5.625C5.45924 9.375 5.30027 9.44085 5.18306 9.55806C5.06585 9.67527 5 9.83424 5 10C5 10.1658 5.06585 10.3247 5.18306 10.4419C5.30027 10.5592 5.45924 10.625 5.625 10.625H7.5C7.66576 10.625 7.82473 10.5592 7.94194 10.4419C8.05915 10.3247 8.125 10.1658 8.125 10C8.125 9.83424 8.05915 9.67527 7.94194 9.55806C7.82473 9.44085 7.66576 9.375 7.5 9.375ZM13.125 3.125V11.875C13.125 12.3723 12.9275 12.8492 12.5758 13.2008C12.2242 13.5525 11.7473 13.75 11.25 13.75H3.75C3.25272 13.75 2.77581 13.5525 2.42417 13.2008C2.07254 12.8492 1.875 12.3723 1.875 11.875V3.125C1.875 2.62772 2.07254 2.15081 2.42417 1.79917C2.77581 1.44754 3.25272 1.25 3.75 1.25H11.25C11.7473 1.25 12.2242 1.44754 12.5758 1.79917C12.9275 2.15081 13.125 2.62772 13.125 3.125ZM8.75 3.75C8.91576 3.75 9.07473 3.68415 9.19194 3.56694C9.30915 3.44973 9.375 3.29076 9.375 3.125V2.5H5.625V3.125C5.625 3.29076 5.69085 3.44973 5.80806 3.56694C5.92527 3.68415 6.08424 3.75 6.25 3.75H8.75ZM11.875 3.125C11.875 2.95924 11.8092 2.80027 11.6919 2.68306C11.5747 2.56585 11.4158 2.5 11.25 2.5H10.625V3.125C10.625 3.62228 10.4275 4.09919 10.0758 4.45083C9.72419 4.80246 9.24728 5 8.75 5H6.25C5.75272 5 5.27581 4.80246 4.92417 4.45083C4.57254 4.09919 4.375 3.62228 4.375 3.125V2.5H3.75C3.58424 2.5 3.42527 2.56585 3.30806 2.68306C3.19085 2.80027 3.125 2.95924 3.125 3.125V11.875C3.125 12.0408 3.19085 12.1997 3.30806 12.3169C3.42527 12.4342 3.58424 12.5 3.75 12.5H11.25C11.4158 12.5 11.5747 12.4342 11.6919 12.3169C11.8092 12.1997 11.875 12.0408 11.875 11.875V3.125Z" fill="white"/>
</svg>
