<svg width="16" height="16" viewBox="0 0 16 16" fill="none" xmlns="http://www.w3.org/2000/svg">
<path d="M7.99992 1.33325C6.68138 1.33325 5.39245 1.72425 4.29612 2.45679C3.19979 3.18933 2.34531 4.23052 1.84072 5.4487C1.33614 6.66687 1.20412 8.00731 1.46135 9.30052C1.71859 10.5937 2.35353 11.7816 3.28588 12.714C4.21823 13.6463 5.40611 14.2813 6.69932 14.5385C7.99253 14.7957 9.33297 14.6637 10.5511 14.1591C11.7693 13.6545 12.8105 12.8 13.5431 11.7037C14.2756 10.6074 14.6666 9.31846 14.6666 7.99992C14.6666 7.12444 14.4942 6.25753 14.1591 5.4487C13.8241 4.63986 13.333 3.90493 12.714 3.28587C12.0949 2.66682 11.36 2.17575 10.5511 1.84072C9.74231 1.50569 8.8754 1.33325 7.99992 1.33325ZM7.99992 13.3333C6.94509 13.3333 5.91394 13.0205 5.03688 12.4344C4.15982 11.8484 3.47623 11.0154 3.07256 10.0409C2.6689 9.06636 2.56328 7.994 2.76907 6.95944C2.97485 5.92487 3.48281 4.97456 4.22869 4.22868C4.97457 3.4828 5.92487 2.97485 6.95944 2.76906C7.99401 2.56328 9.06636 2.66889 10.0409 3.07256C11.0154 3.47623 11.8484 4.15982 12.4344 5.03688C13.0205 5.91394 13.3333 6.94509 13.3333 7.99992C13.3333 9.41441 12.7714 10.771 11.7712 11.7712C10.771 12.7713 9.41441 13.3333 7.99992 13.3333ZM4.99992 6.66659C4.99992 6.4688 5.05857 6.27546 5.16845 6.11102C5.27833 5.94657 5.43451 5.81839 5.61724 5.74271C5.79996 5.66702 6.00103 5.64721 6.19501 5.6858C6.38899 5.72439 6.56718 5.81963 6.70703 5.95948C6.84688 6.09933 6.94212 6.27751 6.98071 6.47149C7.01929 6.66548 6.99949 6.86654 6.9238 7.04927C6.84811 7.232 6.71994 7.38817 6.55549 7.49806C6.39104 7.60794 6.1977 7.66659 5.99992 7.66659C5.7347 7.66659 5.48035 7.56123 5.29281 7.37369C5.10528 7.18616 4.99992 6.9318 4.99992 6.66659ZM10.9999 6.66659C10.9999 6.86437 10.9413 7.05771 10.8314 7.22216C10.7215 7.3866 10.5653 7.51478 10.3826 7.59047C10.1999 7.66615 9.99881 7.68596 9.80483 7.64737C9.61085 7.60879 9.43267 7.51355 9.29282 7.37369C9.15296 7.23384 9.05772 7.05566 9.01914 6.86168C8.98055 6.6677 9.00035 6.46663 9.07604 6.2839C9.15173 6.10118 9.2799 5.945 9.44435 5.83512C9.6088 5.72523 9.80214 5.66659 9.99992 5.66659C10.2651 5.66659 10.5195 5.77194 10.707 5.95948C10.8946 6.14702 10.9999 6.40137 10.9999 6.66659ZM10.4866 8.92659C10.5534 8.96922 10.6111 9.02468 10.6564 9.08976C10.7017 9.15483 10.7336 9.22824 10.7503 9.30572C10.7671 9.38321 10.7683 9.46324 10.7539 9.5412C10.7395 9.61916 10.7099 9.6935 10.6666 9.75992C10.3752 10.1944 9.98135 10.5505 9.51977 10.7967C9.05818 11.043 8.54308 11.1718 8.01992 11.1718C7.49677 11.1718 6.98166 11.043 6.52008 10.7967C6.05849 10.5505 5.66463 10.1944 5.37326 9.75992C5.32904 9.6947 5.29811 9.6214 5.28222 9.54423C5.26633 9.46705 5.2658 9.3875 5.28066 9.31011C5.29552 9.23273 5.32547 9.15903 5.36881 9.09323C5.41215 9.02742 5.46803 8.9708 5.53326 8.92659C5.59859 8.88181 5.67222 8.85056 5.74982 8.83469C5.82741 8.81882 5.9074 8.81864 5.98507 8.83418C6.06274 8.84971 6.13651 8.88064 6.20203 8.92513C6.26755 8.96963 6.32351 9.02679 6.36659 9.09325C6.54903 9.36829 6.79669 9.5939 7.0875 9.74997C7.3783 9.90603 7.70322 9.98771 8.03326 9.98771C8.3633 9.98771 8.68821 9.90603 8.97901 9.74997C9.26982 9.5939 9.51749 9.36829 9.69992 9.09325C9.78618 8.97178 9.91497 8.88721 10.0607 8.85633C10.2065 8.82545 10.3585 8.85053 10.4866 8.92659Z" fill="white"/>
</svg>
