<svg width="16" height="16" viewBox="0 0 16 16" fill="none" xmlns="http://www.w3.org/2000/svg">
<path d="M14 10.4076C14.1935 9.85679 14.2947 9.28059 14.3 8.70001C14.3148 8.01771 14.14 7.34373 13.7933 6.74576C13.6252 6.47548 13.3978 6.24256 13.1267 6.06273C12.825 5.87186 12.4692 5.7726 12.1067 5.77813H10.6667C10.6306 5.77927 10.5947 5.77309 10.5614 5.76C10.528 5.74691 10.498 5.72722 10.4733 5.70223C10.4243 5.65219 10.3959 5.58709 10.3933 5.51882V5.44926L10.9333 4.29188C11.0434 4.05249 11.1001 3.79412 11.1 3.53295C11.0995 3.02992 10.8885 2.54765 10.5133 2.19217L10.3667 2.05304C10.2319 1.92629 10.0701 1.8283 9.89218 1.76563C9.71426 1.70296 9.52428 1.67704 9.33495 1.68961C9.14562 1.70218 8.96131 1.75296 8.79432 1.83853C8.62734 1.92411 8.48154 2.04252 8.36667 2.18585L5.49334 5.77813C5.22351 5.4908 4.86796 5.2881 4.47388 5.19692C4.07979 5.10574 3.66579 5.1304 3.28682 5.26762C2.90785 5.40484 2.58182 5.64814 2.35199 5.96522C2.12217 6.28231 1.99941 6.6582 2 7.04301V12.1026C2 12.6058 2.21072 13.0884 2.58579 13.4442C2.96086 13.8 3.46957 13.9999 4 13.9999C4.4673 13.999 4.91889 13.8397 5.27334 13.5509C5.63131 13.8383 6.08437 13.9972 6.55334 13.9999H10.6133C11.0536 14.004 11.4867 13.8947 11.8667 13.6837C12.4117 13.3567 12.8502 12.8925 13.1333 12.3429C13.4794 11.7222 13.7693 11.0748 14 10.4076ZM4 12.735C3.82319 12.735 3.65362 12.6684 3.5286 12.5498C3.40357 12.4312 3.33334 12.2703 3.33334 12.1026V7.04301C3.33334 6.87528 3.40357 6.71441 3.5286 6.59581C3.65362 6.4772 3.82319 6.41057 4 6.41057C4.17681 6.41057 4.34638 6.4772 4.47141 6.59581C4.59643 6.71441 4.66667 6.87528 4.66667 7.04301V12.1026C4.66667 12.2703 4.59643 12.4312 4.47141 12.5498C4.34638 12.6684 4.17681 12.735 4 12.735ZM11.7067 12.1026C11.5692 12.2887 11.3948 12.4476 11.1933 12.5706C11.017 12.6663 10.8164 12.7144 10.6133 12.7097H6.55334C6.4656 12.7102 6.37862 12.6942 6.2974 12.6628C6.21617 12.6313 6.1423 12.5849 6.08 12.5263L6 12.4378C6.01019 12.3262 6.01019 12.2141 6 12.1026V7.25172L9.40667 2.94478L9.55334 3.08392C9.61512 3.14301 9.66401 3.2131 9.69718 3.29015C9.73036 3.36721 9.74718 3.44972 9.74667 3.53295C9.7453 3.6203 9.72487 3.70644 9.68667 3.78593L9.13334 4.98125V5.03817C9.07551 5.19246 9.04619 5.35507 9.04667 5.51882C9.04666 5.72005 9.08866 5.91929 9.17023 6.10504C9.25181 6.29079 9.37135 6.45938 9.52196 6.60109C9.67256 6.74279 9.85126 6.85479 10.0477 6.93064C10.2442 7.00649 10.4546 7.04468 10.6667 7.04301H12.14C12.2256 7.04246 12.3093 7.06673 12.38 7.11258C12.5644 7.24811 12.7015 7.43326 12.7733 7.64383C12.9077 7.9811 12.9733 8.33951 12.9667 8.70001C12.9635 9.14339 12.8847 9.58335 12.7333 10.0028C12.4982 10.7455 12.1525 11.4526 11.7067 12.1026Z" fill="white"/>
</svg>
