<svg width="16" height="16" viewBox="0 0 16 16" fill="none" xmlns="http://www.w3.org/2000/svg">
<path d="M4.66659 8.66667C5.194 8.66667 5.70957 8.51027 6.14811 8.21725C6.58664 7.92424 6.92843 7.50776 7.13026 7.02049C7.3321 6.53322 7.38491 5.99704 7.28201 5.47976C7.17912 4.96248 6.92514 4.48732 6.5522 4.11438C6.17926 3.74144 5.70411 3.48747 5.18683 3.38457C4.66954 3.28168 4.13337 3.33449 3.6461 3.53632C3.15883 3.73816 2.74235 4.07995 2.44933 4.51848C2.15632 4.95701 1.99992 5.47258 1.99992 6C1.99992 6.70725 2.28087 7.38552 2.78097 7.88562C3.28106 8.38572 3.95934 8.66667 4.66659 8.66667ZM4.66659 4.66667C4.93029 4.66667 5.18808 4.74487 5.40735 4.89138C5.62661 5.03788 5.79751 5.24612 5.89843 5.48976C5.99934 5.73339 6.02575 6.00148 5.9743 6.26012C5.92285 6.51876 5.79586 6.75634 5.60939 6.94281C5.42292 7.12928 5.18535 7.25627 4.92671 7.30772C4.66806 7.35916 4.39998 7.33276 4.15634 7.23184C3.91271 7.13092 3.70447 6.96003 3.55796 6.74076C3.41145 6.5215 3.33325 6.26371 3.33325 6C3.33325 5.64638 3.47373 5.30724 3.72378 5.05719C3.97382 4.80714 4.31296 4.66667 4.66659 4.66667ZM7.99992 11.3333V12.6667C7.99992 12.8435 7.92968 13.013 7.80466 13.1381C7.67963 13.2631 7.51006 13.3333 7.33325 13.3333C7.15644 13.3333 6.98687 13.2631 6.86185 13.1381C6.73682 13.013 6.66659 12.8435 6.66659 12.6667V11.3333C6.66659 11.1565 6.59635 10.987 6.47132 10.8619C6.3463 10.7369 6.17673 10.6667 5.99992 10.6667H3.33325C3.15644 10.6667 2.98687 10.7369 2.86185 10.8619C2.73682 10.987 2.66659 11.1565 2.66659 11.3333V12.6667C2.66659 12.8435 2.59635 13.013 2.47132 13.1381C2.3463 13.2631 2.17673 13.3333 1.99992 13.3333C1.82311 13.3333 1.65354 13.2631 1.52851 13.1381C1.40349 13.013 1.33325 12.8435 1.33325 12.6667V11.3333C1.33325 10.8029 1.54397 10.2942 1.91904 9.91912C2.29411 9.54405 2.80282 9.33333 3.33325 9.33333H5.99992C6.53035 9.33333 7.03906 9.54405 7.41413 9.91912C7.78921 10.2942 7.99992 10.8029 7.99992 11.3333ZM11.3333 7.33333C11.8607 7.33333 12.3762 7.17694 12.8148 6.88392C13.2533 6.5909 13.5951 6.17443 13.7969 5.68716C13.9988 5.19989 14.0516 4.66371 13.9487 4.14643C13.8458 3.62914 13.5918 3.15399 13.2189 2.78105C12.8459 2.40811 12.3708 2.15413 11.8535 2.05124C11.3362 1.94835 10.8 2.00116 10.3128 2.20299C9.82549 2.40482 9.40902 2.74662 9.116 3.18515C8.82298 3.62368 8.66659 4.13925 8.66659 4.66667C8.66659 5.37391 8.94754 6.05219 9.44763 6.55229C9.94773 7.05238 10.626 7.33333 11.3333 7.33333ZM11.3333 3.33333C11.597 3.33333 11.8547 3.41153 12.074 3.55804C12.2933 3.70455 12.4642 3.91279 12.5651 4.15642C12.666 4.40006 12.6924 4.66815 12.641 4.92679C12.5895 5.18543 12.4625 5.42301 12.2761 5.60948C12.0896 5.79595 11.852 5.92294 11.5934 5.97438C11.3347 6.02583 11.0666 5.99942 10.823 5.89851C10.5794 5.79759 10.3711 5.62669 10.2246 5.40743C10.0781 5.18816 9.99992 4.93038 9.99992 4.66667C9.99992 4.31305 10.1404 3.97391 10.3904 3.72386C10.6405 3.47381 10.9796 3.33333 11.3333 3.33333ZM14.6666 10V11.3333C14.6666 11.5101 14.5963 11.6797 14.4713 11.8047C14.3463 11.9298 14.1767 12 13.9999 12C13.8231 12 13.6535 11.9298 13.5285 11.8047C13.4035 11.6797 13.3333 11.5101 13.3333 11.3333V10C13.3333 9.82319 13.263 9.65362 13.138 9.5286C13.013 9.40357 12.8434 9.33333 12.6666 9.33333H9.99992C9.88539 9.33369 9.77289 9.36353 9.67325 9.42C9.55961 9.48316 9.46692 9.57817 9.40659 9.69333C9.36711 9.77295 9.31211 9.84387 9.24483 9.90192C9.17755 9.95997 9.09935 10.004 9.01481 10.0314C8.93027 10.0588 8.84111 10.069 8.75257 10.0614C8.66403 10.0539 8.57789 10.0287 8.49923 9.98734C8.42056 9.946 8.35095 9.88936 8.29449 9.82074C8.23804 9.75211 8.19587 9.6729 8.17046 9.58774C8.14506 9.50259 8.13694 9.41321 8.14658 9.32487C8.15622 9.23653 8.18342 9.15101 8.22659 9.07333C8.40766 8.73011 8.68286 8.44565 9.01992 8.25333C9.31946 8.08626 9.65693 7.99902 9.99992 8H12.6666C13.197 8 13.7057 8.21071 14.0808 8.58579C14.4559 8.96086 14.6666 9.46957 14.6666 10Z" fill="white"/>
</svg>
