<svg width="90" height="143" viewBox="0 0 90 143" fill="none" xmlns="http://www.w3.org/2000/svg">
<path d="M16.8026 0.0993118C7.92847 0.136677 0.679688 0.192726 0.679688 0.230091C0.679688 0.267456 0.978606 1.01476 1.35225 1.87415C1.7259 2.71486 3.1084 6.11506 4.45354 9.40316C5.77999 12.6913 7.74164 17.474 8.80654 20.0521C9.87144 22.6116 11.5155 26.6097 12.4496 28.9263C14.4299 33.8398 15.4575 36.3245 17.4191 41.0699C20.9127 49.533 21.4919 51.0463 21.4919 51.943C21.5106 52.9706 22.2392 52.9519 22.5381 52.1672C22.5381 51.5507 22.7997 51.4947 22.5381 52.1672C22.5381 52.4288 22.6315 52.6903 22.7249 52.7464C22.837 52.8024 22.9118 53.0827 22.9118 53.3255C22.9118 53.6245 23.0052 53.7739 23.1546 53.7365C23.3788 53.6618 23.4722 53.3816 24.2195 50.71C24.4437 49.888 24.78 49.0286 24.9668 48.7857C25.1537 48.5428 25.4899 47.7395 25.7141 46.9922C25.9383 46.2636 26.2746 45.3855 26.4614 45.0492C26.6669 44.7129 27.0032 43.8349 27.2087 43.0876C27.4329 42.3403 27.7132 41.593 27.8439 41.4435C28.1615 41.0512 29.1704 38.6785 30.31 35.652C30.5529 34.9794 31.0013 33.8958 31.3189 33.2232C31.9727 31.766 33.019 29.1878 33.7476 27.2075C34.0278 26.4042 34.4388 25.4887 34.6443 25.1524C34.8498 24.8162 35.2048 23.9568 35.4103 23.2468C35.6345 22.5369 35.9708 21.6775 36.1763 21.3412C36.4005 21.0049 36.7741 20.1269 37.017 19.3796C37.2785 18.6323 37.5961 17.8476 37.7456 17.6234C38.1193 17.063 38.7918 14.8024 38.7918 14.0924C38.8105 13.5693 38.8292 13.5507 39.0534 13.8309C39.1842 14.0177 39.3523 14.1111 39.4083 14.0364C39.6699 13.7935 39.5204 13.0275 39.1655 12.7099C38.9413 12.5418 38.605 11.7945 38.3808 11.0846C38.1566 10.356 37.8951 9.72076 37.7643 9.64603C37.6335 9.5713 37.3533 8.78664 37.1104 7.88988C36.8675 6.99313 36.5312 6.13374 36.3631 5.96559C36.1763 5.79745 35.6345 4.52705 35.1301 3.14455C34.1959 0.566372 33.8036 -0.0688286 33.2431 0.00590134C33.0563 0.0432663 25.6581 0.0806313 16.8026 0.0993118Z" fill="white" fill-opacity="0.06"/>
<path d="M52.973 7.64696C51.2916 11.7571 49.6849 15.6991 49.4234 16.3717C48.9376 17.6047 45.6869 25.6194 44.8649 27.6185C43.856 30.0472 42.1933 34.1386 40.7547 37.707C39.914 39.8181 38.8491 42.3776 38.4194 43.4051C37.9897 44.4326 37.0556 46.7493 36.3457 48.5428C35.6171 50.3363 34.795 52.3913 34.4961 53.12C32.4597 58.0334 32.0861 59.0049 31.8245 59.7522C31.619 60.4061 31.4509 60.6116 31.1146 60.649C28.4243 60.9666 26.2759 61.7512 25.5473 62.6667C24.6692 63.7689 24.5945 64.5723 24.5945 72.0826C24.5945 77.4258 24.5384 79.1819 24.3703 79.4061C24.2395 79.5743 23.8285 79.7985 23.4548 79.9106C22.5207 80.2095 18.8403 83.9086 16.8599 86.5615C14.9543 89.0836 13.8521 91.0079 12.6564 93.7729C10.6947 98.3314 10.0595 101.414 9.89139 107.019C9.79798 110.4 9.83534 111.148 10.1903 113.277C10.6574 116.042 11.1992 118.06 12.2267 120.75C12.9366 122.581 14.917 126.43 15.6643 127.364C15.8511 127.644 16.561 128.56 17.2149 129.438C18.504 131.175 22.1657 134.837 23.6043 135.808C24.09 136.145 24.6505 136.574 24.8373 136.742C25.0428 136.929 25.5659 137.266 26.033 137.508C26.5001 137.733 27.0979 138.125 27.3594 138.349C27.6023 138.573 28.2749 138.947 28.8354 139.153C29.3958 139.358 29.975 139.638 30.1058 139.788C30.5915 140.255 36.3644 142.142 38.6623 142.571C41.6702 143.113 47.8354 143.151 51.0301 142.627C53.272 142.272 59.5493 140.273 60.1845 139.713C60.39 139.545 61.0065 139.227 61.5483 139.04C62.0901 138.854 62.7066 138.536 62.9121 138.349C63.1363 138.144 63.7341 137.714 64.2759 137.396C66.3683 136.107 67.6574 135.117 69.4696 133.398C71.4126 131.53 73.2995 129.344 73.8039 128.354C73.9721 128.036 74.215 127.7 74.3644 127.625C74.4952 127.551 74.8875 126.953 75.2051 126.318C75.5227 125.664 75.859 125.141 75.9524 125.141C76.1392 125.141 77.2789 122.525 77.2789 122.133C77.2789 122.002 77.4844 121.591 77.7459 121.217C78.0262 120.825 78.4372 119.648 78.7735 118.247C79.0911 116.976 79.4647 115.818 79.6142 115.669C79.7636 115.519 79.8944 115.258 79.8944 115.09C79.8944 114.921 79.9878 114.137 80.0999 113.371C80.3428 111.596 80.3241 105.169 80.0812 103.095C79.9691 102.217 79.8384 100.723 79.7636 99.77C79.6515 97.8644 79.3339 97.4347 79.3153 99.1161C79.3153 100.499 79.0911 99.9942 78.7735 97.9391C78.4745 95.9214 77.6525 92.9696 77.6525 93.9037C77.6525 94.3894 77.2976 94.0905 77.1855 93.5114C77.1107 93.1938 76.8865 92.3904 76.681 91.7365C76.4195 90.8398 76.2513 90.5782 75.9711 90.5782C75.7095 90.5782 75.504 90.298 75.2051 89.4386C74.9249 88.6539 74.6633 88.2616 74.3644 88.1495C74.1029 88.0374 73.8974 87.7572 73.8226 87.3648C73.7479 87.0286 73.3742 86.412 72.9819 86.001C69.6564 82.47 67.3398 80.2095 66.6859 79.7798C66.2562 79.5182 65.8639 79.1259 65.8079 78.9017C65.7518 78.6962 65.6958 75.6136 65.6958 72.0639C65.6958 65.5998 65.5276 63.4887 65.0419 63.4887C64.9111 63.4887 64.6682 63.1898 64.4814 62.8161C64.0891 61.9941 64.2199 60.9105 64.743 60.4808C64.9672 60.294 65.2661 59.6028 65.4903 58.706C65.9386 56.8938 66.1255 56.4081 66.3123 56.4454C66.4057 56.4641 66.7794 55.6421 67.1717 54.6146C67.564 53.587 68.0498 52.41 68.2553 51.999C68.4795 51.588 68.8157 50.6913 69.0212 50C69.2454 49.3088 69.5443 48.5428 69.6938 48.3186C69.8433 48.0757 70.1982 47.2163 70.4785 46.3943C70.7587 45.5723 71.095 44.7689 71.2444 44.6008C71.3939 44.4326 71.7489 43.5919 72.0291 42.7325C72.7204 40.7148 73.8226 37.9872 74.2897 37.1091C74.4952 36.7168 74.9062 35.7453 75.2051 34.9607C75.4854 34.1573 76.1392 32.5693 76.625 31.4484C77.1107 30.3087 77.7086 28.8889 77.9514 28.2723C78.213 27.6558 78.5866 26.7217 78.7921 26.2173C79.0163 25.6942 79.4834 24.5172 79.8197 23.6017C80.1746 22.6676 80.6604 21.4906 80.9033 20.9862C81.333 20.1081 81.8374 18.8751 83.0891 15.6991C83.388 14.9518 83.6309 14.1484 83.6309 13.9243C83.6309 13.6814 83.799 13.3638 84.0045 13.1956C84.1914 13.0088 84.5463 12.2802 84.7705 11.5329C84.9947 10.8043 85.4618 9.66466 85.7981 8.9921C86.153 8.33821 86.4333 7.66565 86.4333 7.53487C86.4333 7.14253 87.0124 5.49847 87.1805 5.38638C87.274 5.33034 87.6103 4.45227 87.9652 3.42473C88.3202 2.3972 88.6938 1.57518 88.7872 1.59386C88.9367 1.63123 89.3664 0.734467 89.4038 0.286087C89.4224 0.211349 86.6948 0.155304 83.3507 0.155304H77.2789L77.092 0.56633C76.9986 0.809189 76.3261 2.50929 75.6161 4.35886C73.9534 8.69318 73.094 10.7856 72.7951 11.3648C72.6643 11.6263 72.2346 12.6352 71.8423 13.6066C71.095 15.5496 69.2081 20.1642 66.7233 26.2173C63.7902 33.3166 62.5198 36.4552 61.212 39.6686C59.9042 42.9194 55.3083 54.1662 53.8324 57.7158C53.3841 58.7994 52.9544 59.9017 52.8983 60.1819C52.7115 60.8732 52.5247 60.9666 51.0301 60.9853C50.3201 60.9853 48.4145 61.0039 46.8265 61.0413C43.09 61.116 43.4076 61.1534 43.5571 60.5556C43.7066 59.9017 44.9957 56.6696 46.4529 53.2134C47.0881 51.7188 47.9288 49.7011 48.3211 48.7296C48.7135 47.7581 49.8531 44.9744 50.8433 42.5644C51.8334 40.1544 52.7489 37.8751 52.8983 37.5201C53.0291 37.1652 53.7017 35.5211 54.3929 33.8771C55.0842 32.233 56.5974 28.5339 57.7744 25.6568C58.9327 22.7797 60.6515 18.5762 61.5856 16.3156C62.5198 14.055 63.5286 11.5329 63.8462 10.7109C64.1451 9.88885 64.4814 9.06682 64.5935 8.86131C64.7056 8.6745 65.0793 7.74037 65.4529 6.80624C65.8079 5.87213 66.331 4.60173 66.6112 3.9852C66.9101 3.36868 67.2838 2.47192 67.4519 2.00487C67.6201 1.51912 67.9377 0.939972 68.1245 0.697098C68.33 0.472916 68.4981 0.248718 68.4981 0.211349C68.4981 0.192673 65.6958 0.155304 62.2769 0.155304H56.037L52.973 7.64696ZM57.9052 71.1485C58.0547 73.8388 57.9613 74.6982 57.5316 74.6982C57.3634 74.6982 56.7095 74.4366 56.0556 74.1377C53.1038 72.6991 44.9957 72.0639 39.6338 72.8486C37.3919 73.1849 35.0192 73.7827 33.7675 74.3432C33.1136 74.6421 32.5532 74.885 32.5158 74.885C32.385 74.885 32.4411 68.9627 32.5718 68.8506C32.6279 68.7758 38.326 68.7385 45.2198 68.7571L57.7557 68.8132L57.9052 71.1485ZM45.4627 89.8496C46.0419 90.0738 46.8452 91.4002 48.8256 95.4356C50.8619 99.5645 51.385 100.2 53.1038 100.499C53.7017 100.611 55.9062 100.928 57.9986 101.209C61.2867 101.676 61.8846 101.806 62.5384 102.236C62.9495 102.516 63.3418 102.871 63.3978 103.039C63.622 103.619 62.7439 104.758 59.3064 108.196C55.8501 111.689 55.1028 112.661 55.3083 113.427C55.3644 113.651 55.5325 114.753 55.7007 115.893C55.8688 117.014 56.2425 119.032 56.5414 120.377C56.8403 121.703 57.0271 123.048 56.9711 123.328C56.915 123.609 56.6161 124.113 56.2985 124.412C55.8128 124.898 55.6446 124.973 55.0655 124.86C54.3182 124.748 51.1795 123.216 48.0409 121.46C45.2946 119.928 44.8088 119.854 42.9593 120.732C42.1559 121.105 41.1658 121.591 40.7547 121.815C40.3437 122.039 39.3909 122.544 38.6249 122.936C37.859 123.328 37.0556 123.796 36.8501 124.001C36.6259 124.207 36.0094 124.487 35.4676 124.655C34.6269 124.898 34.4027 124.898 33.8796 124.674C33.5246 124.524 33.151 124.281 33.0202 124.132C32.5905 123.627 32.5718 122.469 32.9829 120.825C33.3191 119.405 33.8796 116.21 34.2159 113.726C34.3093 113.091 34.2533 112.698 34.0104 112.231C33.8422 111.876 32.1235 110.045 30.1992 108.14C28.1067 106.085 26.5374 104.366 26.3132 103.917L25.9209 103.151L26.4253 102.666C27.1726 101.956 28.032 101.657 30.1058 101.414C33.2631 101.04 37.3545 100.293 37.7842 100.013C38.5876 99.4897 39.5217 98.1072 40.6426 95.7719C41.2778 94.4828 41.7823 93.3619 41.7823 93.2872C41.7823 93.0069 43.8373 89.6815 44.0615 89.588C44.3044 89.4946 44.7154 89.5694 45.4627 89.8496Z" fill="white" fill-opacity="0.06"/>
<path d="M79.4638 116.229C79.4078 116.379 79.4452 116.603 79.5386 116.752C79.6507 116.939 79.7067 116.883 79.7067 116.491C79.7067 115.949 79.6133 115.837 79.4638 116.229Z" fill="white" fill-opacity="0.06"/>
</svg>
