<svg width="357" height="127" viewBox="0 0 357 127" fill="none" xmlns="http://www.w3.org/2000/svg">
<mask id="path-1-inside-1_1283_3132" fill="white">
<path fill-rule="evenodd" clip-rule="evenodd" d="M220.015 0C220.005 0.167795 220 0.336875 220 0.507105C220 5.2788 223.868 9.14702 228.64 9.14702H333.36C338.132 9.14702 342 5.2788 342 0.507105C342 0.336875 341.995 0.167795 341.985 0H347C352.523 0 357 4.47715 357 10V117C357 122.523 352.523 127 347 127H10C4.47715 127 0 122.523 0 117V10C0 4.47716 4.47715 0 10 0H15.0146C15.0049 0.167795 15 0.336875 15 0.507105C15 5.2788 18.8682 9.14702 23.6399 9.14702H100.36C105.132 9.14702 109 5.2788 109 0.507105C109 0.336875 108.995 0.167795 108.985 0H220.015Z"/>
</mask>
<path fill-rule="evenodd" clip-rule="evenodd" d="M220.015 0C220.005 0.167795 220 0.336875 220 0.507105C220 5.2788 223.868 9.14702 228.64 9.14702H333.36C338.132 9.14702 342 5.2788 342 0.507105C342 0.336875 341.995 0.167795 341.985 0H347C352.523 0 357 4.47715 357 10V117C357 122.523 352.523 127 347 127H10C4.47715 127 0 122.523 0 117V10C0 4.47716 4.47715 0 10 0H15.0146C15.0049 0.167795 15 0.336875 15 0.507105C15 5.2788 18.8682 9.14702 23.6399 9.14702H100.36C105.132 9.14702 109 5.2788 109 0.507105C109 0.336875 108.995 0.167795 108.985 0H220.015Z" fill="#19162F"/>
<path d="M220.015 0L221.712 0.0981569L221.816 -1.7L220.015 -1.7V0ZM341.985 0V-1.7H340.184L340.288 0.0981569L341.985 0ZM15.0146 0L16.7118 0.0982242L16.8159 -1.7H15.0146V0ZM108.985 0V-1.7H107.184L107.288 0.0982338L108.985 0ZM221.7 0.507105C221.7 0.369696 221.704 0.233349 221.712 0.0981569L218.317 -0.0981569C218.306 0.102242 218.3 0.304055 218.3 0.507105H221.7ZM228.64 7.44702C224.807 7.44702 221.7 4.33991 221.7 0.507105H218.3C218.3 6.21769 222.929 10.847 228.64 10.847V7.44702ZM333.36 7.44702H228.64V10.847H333.36V7.44702ZM340.3 0.507105C340.3 4.33991 337.193 7.44702 333.36 7.44702V10.847C339.071 10.847 343.7 6.21769 343.7 0.507105H340.3ZM340.288 0.0981569C340.296 0.233451 340.3 0.369798 340.3 0.507105H343.7C343.7 0.303953 343.694 0.10214 343.683 -0.0981569L340.288 0.0981569ZM341.985 1.7H347V-1.7H341.985V1.7ZM347 1.7C351.584 1.7 355.3 5.41604 355.3 10H358.7C358.7 3.53827 353.462 -1.7 347 -1.7V1.7ZM355.3 10V117H358.7V10H355.3ZM355.3 117C355.3 121.584 351.584 125.3 347 125.3V128.7C353.462 128.7 358.7 123.462 358.7 117H355.3ZM347 125.3H10V128.7H347V125.3ZM10 125.3C5.41604 125.3 1.7 121.584 1.7 117H-1.7C-1.7 123.462 3.53827 128.7 10 128.7V125.3ZM1.7 117V10H-1.7V117H1.7ZM1.7 10C1.7 5.41604 5.41604 1.7 10 1.7V-1.7C3.53827 -1.7 -1.7 3.53827 -1.7 10H1.7ZM10 1.7H15.0146V-1.7H10V1.7ZM13.3175 -0.0982242C13.3059 0.102252 13.3 0.304087 13.3 0.507105H16.7C16.7 0.369664 16.704 0.233339 16.7118 0.0982242L13.3175 -0.0982242ZM13.3 0.507105C13.3 6.21768 17.9293 10.847 23.6399 10.847V7.44702C19.8071 7.44702 16.7 4.33992 16.7 0.507105H13.3ZM23.6399 10.847H100.36V7.44702H23.6399V10.847ZM100.36 10.847C106.071 10.847 110.7 6.21769 110.7 0.507105H107.3C107.3 4.33991 104.193 7.44702 100.36 7.44702V10.847ZM110.7 0.507105C110.7 0.304106 110.694 0.102268 110.683 -0.0982338L107.288 0.0982338C107.296 0.233323 107.3 0.369645 107.3 0.507105H110.7ZM108.985 1.7H220.015V-1.7H108.985V1.7Z" fill="url(#paint0_linear_1283_3132)" mask="url(#path-1-inside-1_1283_3132)"/>
<defs>
<linearGradient id="paint0_linear_1283_3132" x1="-47.5059" y1="-0.00269918" x2="365.226" y2="-0.00269913" gradientUnits="userSpaceOnUse">
<stop stop-color="#C2C2C2" stop-opacity="0.11"/>
<stop offset="1" stop-color="#C2C2C2"/>
</linearGradient>
</defs>
</svg>
