<svg width="320" height="247" viewBox="0 0 320 247" fill="none" xmlns="http://www.w3.org/2000/svg">
<mask id="path-1-inside-1_1283_3879" fill="white">
<path fill-rule="evenodd" clip-rule="evenodd" d="M183.015 0C183.005 0.167795 183 0.336875 183 0.507105C183 5.2788 186.868 9.14702 191.64 9.14702H296.36C301.132 9.14702 305 5.2788 305 0.507105C305 0.336875 304.995 0.167795 304.985 0H310C315.523 0 320 4.47715 320 10V237C320 242.523 315.523 247 310 247H10C4.47715 247 0 242.523 0 237V10C0 4.47716 4.47715 0 10 0H15.0146C15.0049 0.167795 15 0.336875 15 0.507105C15 5.2788 18.8682 9.14702 23.6399 9.14702H100.36C105.132 9.14702 109 5.2788 109 0.507105C109 0.336875 108.995 0.167795 108.985 0H183.015Z"/>
</mask>
<path fill-rule="evenodd" clip-rule="evenodd" d="M183.015 0C183.005 0.167795 183 0.336875 183 0.507105C183 5.2788 186.868 9.14702 191.64 9.14702H296.36C301.132 9.14702 305 5.2788 305 0.507105C305 0.336875 304.995 0.167795 304.985 0H310C315.523 0 320 4.47715 320 10V237C320 242.523 315.523 247 310 247H10C4.47715 247 0 242.523 0 237V10C0 4.47716 4.47715 0 10 0H15.0146C15.0049 0.167795 15 0.336875 15 0.507105C15 5.2788 18.8682 9.14702 23.6399 9.14702H100.36C105.132 9.14702 109 5.2788 109 0.507105C109 0.336875 108.995 0.167795 108.985 0H183.015Z" fill="#19162F"/>
<path d="M183.015 0L184.013 0.0577394L184.074 -1H183.015V0ZM304.985 0V-1H303.926L303.987 0.0577394L304.985 0ZM15.0146 0L16.013 0.057779L16.0742 -1H15.0146V0ZM108.985 0V-1H107.926L107.987 0.0577846L108.985 0ZM184 0.507105C184 0.356181 184.004 0.206356 184.013 0.0577394L182.016 -0.0577394C182.005 0.129235 182 0.317569 182 0.507105H184ZM191.64 8.14702C187.421 8.14702 184 4.72652 184 0.507105H182C182 5.83109 186.316 10.147 191.64 10.147V8.14702ZM296.36 8.14702H191.64V10.147H296.36V8.14702ZM304 0.507105C304 4.72652 300.579 8.14702 296.36 8.14702V10.147C301.684 10.147 306 5.83109 306 0.507105H304ZM303.987 0.0577394C303.996 0.206416 304 0.356241 304 0.507105H306C306 0.317509 305.995 0.129175 305.984 -0.0577394L303.987 0.0577394ZM304.985 1H310V-1H304.985V1ZM310 1C314.971 1 319 5.02944 319 10H321C321 3.92487 316.075 -1 310 -1V1ZM319 10V237H321V10H319ZM319 237C319 241.971 314.971 246 310 246V248C316.075 248 321 243.075 321 237H319ZM310 246H10V248H310V246ZM10 246C5.02944 246 1 241.971 1 237H-1C-1 243.075 3.92487 248 10 248V246ZM1 237V10H-1V237H1ZM1 10C1 5.02944 5.02944 1 10 1V-1C3.92487 -1 -1 3.92488 -1 10H1ZM10 1H15.0146V-1H10V1ZM14.0163 -0.057779C14.0055 0.12924 14 0.317588 14 0.507105H16C16 0.356163 16.0044 0.20635 16.013 0.057779L14.0163 -0.057779ZM14 0.507105C14 5.83109 18.3159 10.147 23.6399 10.147V8.14702C19.4205 8.14702 16 4.72652 16 0.507105H14ZM23.6399 10.147H100.36V8.14702H23.6399V10.147ZM100.36 10.147C105.684 10.147 110 5.83109 110 0.507105H108C108 4.72652 104.579 8.14702 100.36 8.14702V10.147ZM110 0.507105C110 0.317599 109.995 0.12925 109.984 -0.0577846L107.987 0.0577846C107.996 0.206341 108 0.356151 108 0.507105H110ZM108.985 1H183.015V-1H108.985V1Z" fill="url(#paint0_linear_1283_3879)" mask="url(#path-1-inside-1_1283_3879)"/>
<defs>
<linearGradient id="paint0_linear_1283_3879" x1="-47.5059" y1="-0.00269918" x2="365.226" y2="-0.00269913" gradientUnits="userSpaceOnUse">
<stop stop-color="#C2C2C2" stop-opacity="0.11"/>
<stop offset="1" stop-color="#C2C2C2"/>
</linearGradient>
</defs>
</svg>
