<svg width="20" height="20" viewBox="0 0 20 20" fill="none" xmlns="http://www.w3.org/2000/svg">
<circle cx="9.99988" cy="10" r="10" fill="white"/>
<path d="M6.8935 15.9987C9.04374 15.9987 10.7869 14.2555 10.7869 12.1053C10.7869 9.95503 9.04374 8.21191 6.8935 8.21191C4.74325 8.21191 3.00012 9.95503 3.00012 12.1053C3.00012 14.2555 4.74325 15.9987 6.8935 15.9987Z" fill="#04E061"/>
<path d="M13.6477 15.5071C14.947 15.5071 16.0003 14.4538 16.0003 13.1545C16.0003 11.8552 14.947 10.8019 13.6477 10.8019C12.3484 10.8019 11.295 11.8552 11.295 13.1545C11.295 14.4538 12.3484 15.5071 13.6477 15.5071Z" fill="#FF4053"/>
<path d="M7.63955 7.70369C8.44362 7.70369 9.09542 7.05189 9.09542 6.24784C9.09542 5.4438 8.44362 4.79199 7.63955 4.79199C6.83552 4.79199 6.18372 5.4438 6.18372 6.24784C6.18372 7.05189 6.83552 7.70369 7.63955 7.70369Z" fill="#965EEB"/>
<path d="M12.7338 10.2938C14.482 10.2938 15.8993 8.87659 15.8993 7.12837C15.8993 5.38012 14.482 3.96289 12.7338 3.96289C10.9856 3.96289 9.56834 5.38012 9.56834 7.12837C9.56834 8.87659 10.9856 10.2938 12.7338 10.2938Z" fill="#00AAFF"/>
</svg>
