<svg width="20" height="20" viewBox="0 0 20 20" fill="none" xmlns="http://www.w3.org/2000/svg">
<circle cx="9.99998" cy="10" r="10" fill="#010101"/>
<path d="M5.30193 8H1.99998V13H5.30193C6.44798 13 7.37987 12.1339 7.37987 11.0689V9.93109C7.3801 8.86609 6.44798 8 5.30193 8ZM6.02673 11.0689C6.02673 11.4402 5.70193 11.7426 5.30216 11.7426H3.35244V9.25717H5.30193C5.70147 9.25717 6.0265 9.55891 6.0265 9.93109L6.02673 11.0689ZM7.76181 9.25717H9.65073V12.9896H11.0034V9.25717H12.8923V8H7.76181M18 9.25717V8H13.6318V12.9896H14.9844V11.5196H17.266V10.263H14.9844V9.25717" fill="white"/>
</svg>
