<svg width="20" height="20" viewBox="0 0 20 20" fill="none" xmlns="http://www.w3.org/2000/svg">
<g style="mix-blend-mode:luminosity">
<circle cx="10" cy="10" r="10" fill="#827C9B"/>
<g style="mix-blend-mode:color-dodge">
<path d="M16.0002 10.1364C16.0002 9.71094 15.9612 9.30185 15.8888 8.90912H10.1226V11.2328H13.4176C13.2729 11.98 12.8387 12.6128 12.1875 13.0382V14.5491H14.1745C15.3322 13.5019 16.0002 11.9637 16.0002 10.1364Z" fill="#4285F4"/>
<path d="M10.1225 16C11.7755 16 13.1614 15.4655 14.1744 14.5491L12.1874 13.0382C11.6419 13.3982 10.9462 13.6164 10.1225 13.6164C8.53061 13.6164 7.17809 12.5636 6.69386 11.1454H4.65674V12.6945C5.66417 14.6527 7.72912 16 10.1225 16Z" fill="#34A853"/>
<path d="M6.6939 11.1401C6.57145 10.7801 6.49909 10.3983 6.49909 10.0001C6.49909 9.60189 6.57145 9.22007 6.6939 8.86007V7.31097H4.65678C4.23933 8.11825 4 9.02916 4 10.0001C4 10.971 4.23933 11.8819 4.65678 12.6892L6.24306 11.4783L6.6939 11.1401Z" fill="#FBBC05"/>
<path d="M10.1225 6.38909C11.0241 6.38909 11.8256 6.69455 12.4657 7.28364L14.219 5.56546C13.1559 4.59455 11.7755 4 10.1225 4C7.72912 4 5.66417 5.34727 4.65674 7.31091L6.69386 8.86001C7.17809 7.44182 8.53061 6.38909 10.1225 6.38909Z" fill="#EA4335"/>
</g>
</g>
</svg>
