<svg width="10" height="18" viewBox="0 0 10 18" fill="none" xmlns="http://www.w3.org/2000/svg">
<path d="M9.70455 16.2851C9.79816 16.3781 9.87247 16.4886 9.92318 16.6104C9.97389 16.7322 10 16.8628 10 16.9948C10 17.1267 9.97389 17.2573 9.92318 17.3791C9.87247 17.5009 9.79816 17.6115 9.70455 17.7044C9.61169 17.798 9.50122 17.8724 9.3795 17.9231C9.25778 17.9739 9.12723 18 8.99537 18C8.86351 18 8.73295 17.9739 8.61124 17.9231C8.48952 17.8724 8.37904 17.798 8.28619 17.7044L0.295456 9.70876C0.201836 9.61585 0.127528 9.5053 0.0768181 9.38351C0.0261082 9.26172 0 9.13109 0 8.99915C0 8.86721 0.0261082 8.73657 0.0768181 8.61478C0.127528 8.49299 0.201836 8.38245 0.295456 8.28954L8.28619 0.29393C8.47427 0.10573 8.72937 0 8.99537 0C9.12707 0 9.25749 0.0259574 9.37917 0.07639C9.50085 0.126823 9.61141 0.200743 9.70455 0.29393C9.79768 0.387118 9.87155 0.497747 9.92195 0.619502C9.97235 0.741257 9.99829 0.871754 9.99829 1.00354C9.99829 1.13533 9.97235 1.26582 9.92195 1.38758C9.87155 1.50933 9.79768 1.61996 9.70455 1.71315L2.413 8.99915L9.70455 16.2851Z" fill="white"/>
</svg>
