<svg width="12" height="6" viewBox="0 0 12 6" fill="none" xmlns="http://www.w3.org/2000/svg">
<path d="M10.2778 0.865446C10.0348 0.576264 9.64074 0.576264 9.39765 0.865446C9.15456 1.15467 9.15456 1.62353 9.39765 1.91271L9.87503 2.48071H0.622407C0.278644 2.48071 0 2.81229 0 3.22125C0 3.63022 0.278644 3.96179 0.622407 3.96179H9.87503L9.39765 4.52979C9.15456 4.81897 9.15456 5.28788 9.39765 5.57706C9.51917 5.72165 9.67847 5.79395 9.83773 5.79395C9.99699 5.79395 10.1563 5.72165 10.2778 5.57702L11.8177 3.74486C12.0608 3.45568 12.0608 2.98678 11.8177 2.6976L10.2778 0.865446Z" fill="#D4D4D4"/>
</svg>
