<svg xmlns="http://www.w3.org/2000/svg" width="39" height="39" fill="none" viewBox="0 0 39 39">
  <path fill="#7E7E7E" d="M19.5 30C25.299 30 30 25.075 30 19S25.299 8 19.5 8 9 12.925 9 19c0 1.76.394 3.423 1.096 4.898.186.392.248.84.14 1.263l-.625 2.448c-.272 1.063.656 2.036 1.671 1.751l2.337-.655a1.645 1.645 0 0 1 1.206.147A10.07 10.07 0 0 0 19.5 30Z"/>
  <path fill="#1A1B20" d="M22.65 19c0 .608.47 1.1 1.05 1.1.58 0 1.05-.492 1.05-1.1 0-.608-.47-1.1-1.05-1.1-.58 0-1.05.492-1.05 1.1Zm-4.2 0c0 .608.47 1.1 1.05 1.1.58 0 1.05-.492 1.05-1.1 0-.608-.47-1.1-1.05-1.1-.58 0-1.05.492-1.05 1.1Zm-4.2 0c0 .608.47 1.1 1.05 1.1.58 0 1.05-.492 1.05-1.1 0-.608-.47-1.1-1.05-1.1-.58 0-1.05.492-1.05 1.1Z"/>
</svg>
