<svg width="24" height="22" viewBox="0 0 24 22" fill="none" xmlns="http://www.w3.org/2000/svg">
<path fill-rule="evenodd" clip-rule="evenodd" d="M0.456783 0.536665C0.0590644 1.00379 0 1.96445 0 7.97339C0 14.2854 0.0430563 14.9148 0.504807 15.3591C0.93399 15.7722 1.73412 15.8447 5.86255 15.8447H10.7155L10.9109 14.5976C11.1554 13.0361 11.8653 11.5264 12.844 10.4859L13.5994 9.68286H12.4916C11.1651 9.68286 10.4966 9.05875 11.0555 8.34252C11.3594 7.95344 12.0673 7.89681 15.6438 7.97574L19.8729 8.06905L19.8724 4.52013C19.8721 1.45507 19.8034 0.904907 19.3673 0.48561C18.9196 0.0545763 17.8518 0 9.88804 0C1.54423 0 0.881549 0.0378513 0.456783 0.536665ZM4.41603 4.10788C3.73817 4.82852 3.65785 7.46108 4.28686 8.34516C4.95202 9.27999 4.79029 10.2007 3.8723 10.7054C3.42132 10.9531 2.9201 11.4187 2.75836 11.7397C2.4727 12.3075 2.55578 12.3236 5.79603 12.3236C9.03629 12.3236 9.11937 12.3075 8.83371 11.7397C8.67197 11.4187 8.17075 10.9531 7.71977 10.7054C6.80178 10.2007 6.64005 9.27999 7.30521 8.34516C7.53678 8.01975 7.71425 7.12424 7.71921 6.25513C7.72694 4.90657 7.63724 4.66596 6.92654 4.12783C5.91692 3.36377 5.12204 3.35731 4.41603 4.10788ZM11.0401 4.84143C10.766 5.19265 10.766 5.37047 11.0401 5.72169C11.3025 6.05795 12.0196 6.16182 14.0761 6.16182C16.1326 6.16182 16.8496 6.05795 17.1121 5.72169C17.3862 5.37047 17.3862 5.19265 17.1121 4.84143C16.8496 4.50517 16.1326 4.4013 14.0761 4.4013C12.0196 4.4013 11.3025 4.50517 11.0401 4.84143ZM15.8701 10.2392C11.2297 12.5232 11.3511 19.4561 16.0683 21.5508C19.7562 23.1884 24 20.1354 24 15.8447C24 11.451 19.5881 8.40912 15.8701 10.2392ZM18.9083 14.6945L17.4259 16.1853L16.5747 15.5163C15.7986 14.9063 15.6855 14.8884 15.2869 15.3118C14.9491 15.671 14.9173 15.9098 15.147 16.3655C15.4956 17.0583 17.0326 18.4855 17.4298 18.4855C17.7781 18.4855 20.9375 15.296 21.2974 14.5812C21.5737 14.0319 21.1845 13.2039 20.6499 13.2039C20.5075 13.2039 19.7239 13.8747 18.9083 14.6945Z" fill="url(#paint0_linear_1_616)"/>
<defs>
<linearGradient id="paint0_linear_1_616" x1="1.7594" y1="-0.916667" x2="11.8382" y2="26.475" gradientUnits="userSpaceOnUse">
<stop stop-color="#FFEB39"/>
<stop offset="1" stop-color="#FF9F10"/>
</linearGradient>
</defs>
</svg>
