<svg width="20" height="20" viewBox="0 0 20 20" fill="none" xmlns="http://www.w3.org/2000/svg">
<path d="M10 2L11.1547 4L8.8453 4L10 2Z" fill="url(#paint0_linear_1_603)"/>
<path d="M4 9H2V11H4V9Z" fill="url(#paint1_linear_1_603)"/>
<path d="M18 10C18 10.5523 17.5523 11 17 11C16.4477 11 16 10.5523 16 10C16 9.44772 16.4477 9 17 9C17.5523 9 18 9.44772 18 10Z" fill="url(#paint2_linear_1_603)"/>
<path fill-rule="evenodd" clip-rule="evenodd" d="M12.0001 0C12.7364 0 13.3334 0.596954 13.3334 1.33333V5.33333C13.3334 6.06971 13.9303 6.66667 14.6667 6.66667H18.6667C19.403 6.66667 20 7.26362 20 8V12C20 12.7364 19.403 13.3333 18.6667 13.3333H14.6667C13.9303 13.3333 13.3334 13.9303 13.3334 14.6667V18.6667C13.3334 19.403 12.7364 20 12.0001 20H8.00006C7.26368 20 6.66672 19.403 6.66672 18.6667V14.6667C6.66672 13.9303 6.06977 13.3333 5.33339 13.3333H1.33333C0.596953 13.3333 0 12.7364 0 12V8C0 7.26362 0.596954 6.66667 1.33333 6.66667H5.33339C6.06977 6.66667 6.66672 6.06971 6.66672 5.33333V1.33333C6.66672 0.596954 7.26368 0 8.00006 0H12.0001ZM9.42265 1.66667C9.67925 1.22222 10.3208 1.22222 10.5774 1.66667L11.7321 3.66667C11.9887 4.11111 11.6679 4.66667 11.1547 4.66667H8.8453C8.3321 4.66667 8.01135 4.11111 8.26795 3.66667L9.42265 1.66667ZM2 8.33333C1.63181 8.33333 1.33333 8.63181 1.33333 9V11C1.33333 11.3682 1.63181 11.6667 2 11.6667H4C4.36819 11.6667 4.66667 11.3682 4.66667 11V9C4.66667 8.63181 4.36819 8.33333 4 8.33333H2ZM18.6667 10C18.6667 10.9205 17.9205 11.6667 17 11.6667C16.0795 11.6667 15.3333 10.9205 15.3333 10C15.3333 9.07953 16.0795 8.33333 17 8.33333C17.9205 8.33333 18.6667 9.07953 18.6667 10ZM8.90238 15.569C9.03255 15.4389 9.24361 15.4389 9.37378 15.569L10.0809 16.2762L10.788 15.569C10.9182 15.4389 11.1293 15.4389 11.2595 15.569C11.3896 15.6992 11.3896 15.9103 11.2595 16.0404L10.5523 16.7476L11.2594 17.4547C11.3896 17.5848 11.3896 17.7959 11.2594 17.9261C11.1292 18.0562 10.9182 18.0562 10.788 17.9261L10.0809 17.219L9.37383 17.9261C9.24366 18.0562 9.0326 18.0562 8.90243 17.9261C8.77225 17.7959 8.77225 17.5848 8.90243 17.4547L9.60951 16.7476L8.90238 16.0404C8.7722 15.9103 8.7722 15.6992 8.90238 15.569Z" fill="url(#paint3_linear_1_603)"/>
<defs>
<linearGradient id="paint0_linear_1_603" x1="1.46617" y1="-0.833333" x2="11.2401" y2="23.5162" gradientUnits="userSpaceOnUse">
<stop stop-color="#FFEB39"/>
<stop offset="1" stop-color="#FF9F10"/>
</linearGradient>
<linearGradient id="paint1_linear_1_603" x1="1.46617" y1="-0.833333" x2="11.2401" y2="23.5162" gradientUnits="userSpaceOnUse">
<stop stop-color="#FFEB39"/>
<stop offset="1" stop-color="#FF9F10"/>
</linearGradient>
<linearGradient id="paint2_linear_1_603" x1="1.46617" y1="-0.833333" x2="11.2401" y2="23.5162" gradientUnits="userSpaceOnUse">
<stop stop-color="#FFEB39"/>
<stop offset="1" stop-color="#FF9F10"/>
</linearGradient>
<linearGradient id="paint3_linear_1_603" x1="1.46617" y1="-0.833333" x2="11.2401" y2="23.5162" gradientUnits="userSpaceOnUse">
<stop stop-color="#FFEB39"/>
<stop offset="1" stop-color="#FF9F10"/>
</linearGradient>
</defs>
</svg>
