<svg width="29" height="21" viewBox="0 0 29 21" fill="none" xmlns="http://www.w3.org/2000/svg">
    <defs>
        <linearGradient id="grad1">
        <stop offset="0%" stop-color="#FFEB39" />
        <stop offset="100%" stop-color="#FF9F10" />
        </linearGradient>
    </defs>

    <path fill="url(#grad1)" fill-rule="evenodd" clip-rule="evenodd"
        d="M4.57651 0.337649C1.07189 1.63395 -0.747422 5.36588 0.289983 9.13062C0.654775 10.4545 2.79964 12.8933 4.06318 13.4205C5.09564 13.8513 5.1811 13.7904 5.39387 12.4704C5.54299 11.5428 5.46625 11.4019 4.49599 10.8249C3.37109 10.1563 2.31654 8.29472 2.3052 6.95742C2.293 5.52843 3.508 3.65046 4.9038 2.94139C6.10195 2.33248 6.58969 2.2824 11.3096 2.2824C16.0295 2.2824 16.5173 2.33248 17.7154 2.94139C19.1115 3.65075 20.3204 5.51965 20.3204 6.96854C20.3204 7.38356 20.026 8.31112 19.6664 9.02986C18.6723 11.0162 17.1942 11.6547 13.5899 11.6547C10.9963 11.6547 10.7236 11.7089 10.3088 12.3058C10.06 12.6637 9.85625 13.1909 9.85625 13.4773C9.85625 13.9465 10.192 13.9975 13.2716 13.996C17.7076 13.994 18.6485 13.714 20.5085 11.8421C22.2327 10.1071 22.7963 8.55305 22.5568 6.19621C22.376 4.4184 21.8348 3.26766 20.5887 2.01207C18.7543 0.163676 18.4401 0.0925055 11.7456 0.0148912C7.2065 -0.0378279 5.36858 0.0447652 4.57651 0.337649ZM10.9759 7.37595C5.78657 9.24396 4.78027 16.2085 9.20428 19.6378C10.8419 20.9075 12.0136 21.0779 18.3947 20.9748C24.8252 20.8712 25.1464 20.7944 26.9759 18.9247C28.2708 17.6011 28.7708 16.55 28.9516 14.7701C29.176 12.5638 28.6295 10.9342 27.1198 9.30781C25.9086 8.0033 24.2724 6.98934 23.932 7.33201C23.8503 7.41431 23.7102 7.93828 23.6201 8.49594C23.471 9.4235 23.5477 9.56438 24.518 10.1414C25.6429 10.81 26.6974 12.6716 26.7088 14.0089C26.721 15.4379 25.506 17.3158 24.1102 18.0249C22.912 18.6338 22.4243 18.6839 17.7044 18.6839C12.9845 18.6839 12.4967 18.6338 11.2986 18.0249C9.90247 17.3156 8.69357 15.4467 8.69357 13.9978C8.69357 13.5827 8.98773 12.6552 9.34758 11.9364C10.3417 9.95011 11.8197 9.31162 15.4241 9.31162C18.0177 9.31162 18.2904 9.25743 18.7051 8.66054C18.954 8.30263 19.1577 7.77544 19.1577 7.489C19.1577 7.01804 18.8203 6.96972 15.597 6.98143C13.4396 6.98905 11.6183 7.14457 10.9759 7.37595Z" />
</svg>