<svg width="24" height="21" viewBox="0 0 24 21" fill="none" xmlns="http://www.w3.org/2000/svg">
<path fill-rule="evenodd" clip-rule="evenodd" d="M10.7117 0.532609C9.65692 1.75152 0 18.6781 0 19.3072C0 19.6843 0.253231 20.2193 0.562769 20.4963C1.064 20.9452 2.31662 21 12.0535 21C22.2495 21 23.0157 20.9629 23.4908 20.4433C23.7708 20.1372 24 19.6024 24 19.2546C24 18.6617 14.2898 1.69035 13.2883 0.532609C13.0351 0.239522 12.4554 0 12 0C11.5446 0 10.9649 0.239522 10.7117 0.532609ZM11.0769 10.5V13.3913H12H12.9231V10.5V7.6087H12H11.0769V10.5ZM10.888 15.9588C10.5378 16.8615 11.0108 17.3926 12.0748 17.2912C12.9129 17.2112 13.0769 17.0712 13.0769 16.4348C13.0769 15.7984 12.9129 15.6584 12.0748 15.5783C11.3846 15.5126 11.0151 15.631 10.888 15.9588Z" fill="url(#paint0_linear_1_590)"/>
<defs>
<linearGradient id="paint0_linear_1_590" x1="1.7594" y1="-0.875" x2="11.0411" y2="25.5515" gradientUnits="userSpaceOnUse">
<stop stop-color="#FFEB39"/>
<stop offset="1" stop-color="#FF9F10"/>
</linearGradient>
</defs>
</svg>
