<svg width="13" height="21" viewBox="0 0 13 21" fill="none" xmlns="http://www.w3.org/2000/svg">
<g style="mix-blend-mode:luminosity">
<path d="M6.43703 0C7.83374 0 8.25883 0.993027 8.62319 1.98606C8.80537 2.42052 12.3275 12.413 12.449 12.6612C12.449 12.7233 12.449 12.9095 12.3275 12.9095C12.2061 12.9716 10.3235 13.7163 10.2628 13.7163C10.1413 13.7784 10.0199 13.7163 10.0199 13.5922C9.95917 13.4681 9.23045 11.2958 9.10899 11.0475C8.86609 11.0475 4.0687 11.0475 3.82579 11.0475C3.76506 11.2958 2.97562 13.4681 2.91489 13.5922C2.85416 13.7163 2.79342 13.7784 2.67197 13.7163C2.55051 13.6543 0.72872 12.9095 0.607266 12.9095C0.485813 12.8474 0.425098 12.7233 0.485824 12.6612C0.607277 12.2888 4.12941 2.48258 4.31159 1.98606C4.61523 0.993027 5.04031 0 6.43703 0ZM0.182191 17.8126C0.0607377 17.8126 0 17.9368 0 17.9988V20.3573C0 20.4814 0.0607377 20.5435 0.182191 20.5435H12.7526C12.874 20.5435 12.9348 20.4193 12.9348 20.3573V17.9988C12.9348 17.8747 12.874 17.8126 12.7526 17.8126H0.182191ZM6.43703 3.22736L4.67596 8.68908H8.25883L6.43703 3.22736Z" fill="#76728E"/>
</g>
</svg>
