<svg width="77" height="38" viewBox="0 0 77 38" fill="none" xmlns="http://www.w3.org/2000/svg">
<g style="mix-blend-mode:luminosity">
<path d="M66.5823 10.847V20.1374H63.2072V13.6204H59.9574V20.1374H56.5823V10.8464H66.5823V10.847Z" fill="white"/>
<path fill-rule="evenodd" clip-rule="evenodd" d="M49.6507 20.4695C52.672 20.4695 54.9157 18.6487 54.9157 15.8883C54.9157 13.2166 53.2603 11.4819 50.4938 11.4819C49.217 11.4819 48.1635 11.9237 47.37 12.6859C47.5594 11.1105 48.9148 9.96033 50.4072 9.96033C50.7516 9.96033 53.3444 9.95495 53.3444 9.95495L54.8106 7.1971C54.8106 7.1971 51.5554 7.26993 50.0421 7.26993C46.5845 7.32915 44.2491 10.4182 44.2491 14.1701C44.2491 18.541 46.5269 20.4695 49.6507 20.4695ZM49.669 13.9247C50.7909 13.9247 51.5686 14.6492 51.5686 15.888C51.5686 17.003 50.8775 17.9216 49.669 17.9242C48.5131 17.9242 47.7353 17.073 47.7353 15.907C47.7353 14.6679 48.5131 13.9247 49.669 13.9247Z" fill="white"/>
<path d="M41.5019 17.0271C41.5019 17.0271 40.7049 17.4786 39.5144 17.5641C38.1458 17.604 36.9264 16.7544 36.9264 15.2449C36.9264 13.7724 38.0024 12.9284 39.4799 12.9284C40.3859 12.9284 41.5844 13.5456 41.5844 13.5456C41.5844 13.5456 42.4614 11.9639 42.9156 11.1728C42.0838 10.5531 40.9758 10.2133 39.6871 10.2133C36.4347 10.2133 33.9156 12.2976 33.9156 15.2262C33.9156 18.1921 36.2833 20.2279 39.6871 20.1665C40.6385 20.1317 41.951 19.8033 42.751 19.2982L41.5019 17.0271Z" fill="white"/>
<path d="M0 8.27133L4.68186 16.4967V21.514L0.00547699 29.7233L0 8.27133Z" fill="#5B57A2"/>
<path d="M17.9764 13.5036L22.3635 10.8607L31.3419 10.8525L17.9764 18.9002V13.5036Z" fill="#D90751"/>
<path d="M17.9516 8.22288L17.9764 19.1131L13.2836 16.2789V0L17.9516 8.22288Z" fill="#FAB718"/>
<path d="M31.3419 10.8525L22.3632 10.8607L17.9516 8.22288L13.2836 0L31.3419 10.8525Z" fill="#ED6F26"/>
<path d="M17.9764 29.7689V24.4853L13.2836 21.705L13.2862 38L17.9764 29.7689Z" fill="#63B22F"/>
<path d="M22.3526 27.15L4.68154 16.4967L0 8.27133L31.3229 27.1393L22.3526 27.15Z" fill="#1487C9"/>
<path d="M13.2865 38L17.9761 29.7689L22.3522 27.15L31.3225 27.1393L13.2865 38Z" fill="#017F36"/>
<path d="M0.00543213 29.7233L13.3219 21.7053L8.84497 19.0054L4.68181 21.514L0.00543213 29.7233Z" fill="#984995"/>
<path d="M36.9273 26.39C36.8242 26.5192 36.6886 26.6167 36.5259 26.6825C36.3589 26.7493 36.1803 26.7833 36.0001 26.7826C35.8208 26.785 35.6426 26.7556 35.474 26.6958C35.3225 26.6418 35.1841 26.5575 35.0674 26.4482C34.9522 26.3388 34.8617 26.2067 34.8019 26.0606C34.7372 25.9006 34.7049 25.7296 34.7069 25.5574C34.7069 25.3864 34.7368 25.2281 34.799 25.078C34.8586 24.9276 34.9453 24.7987 35.0539 24.6904C35.1624 24.5799 35.2926 24.4956 35.4389 24.4298C35.588 24.3664 35.7507 24.3323 35.9295 24.3323C36.1222 24.3323 36.301 24.356 36.4637 24.4032C36.6264 24.4507 36.7646 24.5298 36.8783 24.6407L36.6805 24.97C36.5848 24.8848 36.4722 24.8201 36.3496 24.78C36.2332 24.7431 36.1115 24.7245 35.9891 24.7249C35.8809 24.7249 35.7778 24.7458 35.6776 24.7854C35.5788 24.8245 35.4886 24.8818 35.4118 24.9542C35.3333 25.0286 35.2714 25.1184 35.2301 25.2176C35.184 25.3202 35.1624 25.4336 35.1624 25.56C35.1624 25.6892 35.1866 25.8051 35.2327 25.9051C35.2791 26.0081 35.3412 26.0951 35.4198 26.1686C35.4985 26.2427 35.5906 26.2978 35.6963 26.3348C35.8023 26.3744 35.9134 26.3928 36.0326 26.3928C36.1789 26.3928 36.312 26.3637 36.4257 26.3082C36.5384 26.2548 36.6396 26.1806 36.724 26.0898L36.9273 26.39ZM37.4856 26.7272V24.3823H37.9141V26.1293L39.3075 24.3823H39.736V26.7275H39.3075V24.9805L37.9141 26.7275L37.4856 26.7272ZM42.5744 26.39C42.469 26.5202 42.3307 26.6211 42.1733 26.6825C42.0062 26.7493 41.8275 26.7833 41.6472 26.7826C41.468 26.785 41.2899 26.7556 41.1214 26.6958C40.9698 26.6418 40.8313 26.5575 40.7145 26.4482C40.5993 26.3388 40.5088 26.2067 40.449 26.0606C40.3843 25.9006 40.352 25.7296 40.354 25.5574C40.354 25.3864 40.3839 25.2281 40.4461 25.078C40.506 24.9276 40.5927 24.7987 40.701 24.6904C40.8095 24.5799 40.9397 24.4956 41.086 24.4298C41.2405 24.3629 41.4078 24.3296 41.5766 24.3323C41.7693 24.3323 41.9481 24.356 42.1108 24.4032C42.2735 24.4507 42.4117 24.5298 42.5258 24.6407L42.3276 24.97C42.2321 24.8847 42.1195 24.82 41.9971 24.78C41.8806 24.7432 41.7589 24.7246 41.6366 24.7249C41.4212 24.7256 41.2143 24.8077 41.0589 24.9542C40.981 25.0292 40.9193 25.1188 40.8772 25.2176C40.8311 25.3202 40.8095 25.4336 40.8095 25.56C40.8095 25.6892 40.834 25.8051 40.8801 25.9051C40.9262 26.0081 40.9883 26.0951 41.0669 26.1686C41.1456 26.2427 41.238 26.2978 41.3437 26.3348C41.4494 26.3716 41.5605 26.3928 41.6797 26.3928C41.8263 26.3928 41.9565 26.3637 42.0728 26.3082C42.1855 26.2548 42.2867 26.1806 42.3711 26.0898L42.5744 26.39ZM42.7941 24.3823H44.9927V24.7987H44.1089V26.7272H43.6804V24.7987H42.7967V24.3823H42.7941Z" fill="white"/>
<path fill-rule="evenodd" clip-rule="evenodd" d="M46.9937 26.7038C47.1564 26.6537 47.2946 26.5771 47.4138 26.472L47.2837 26.1452C47.205 26.2139 47.0994 26.2718 46.9721 26.3193C46.8445 26.3668 46.7008 26.3903 46.5436 26.3903C46.3078 26.3903 46.1125 26.3298 45.9579 26.206C45.8036 26.0818 45.7195 25.9083 45.7005 25.6866H47.5549C47.5739 25.6049 47.582 25.5128 47.582 25.4048C47.582 25.2439 47.552 25.0992 47.4924 24.9675C47.4369 24.8396 47.3559 24.7239 47.254 24.6274C47.1507 24.5318 47.029 24.4575 46.8961 24.4089C46.7569 24.3558 46.6088 24.3289 46.4595 24.3297C46.2588 24.3297 46.0826 24.3639 45.9283 24.4272C45.7824 24.4876 45.6504 24.5763 45.5404 24.6882C45.4335 24.7994 45.3515 24.9313 45.2994 25.0755C45.2421 25.229 45.2136 25.3914 45.2153 25.5549C45.2153 25.7395 45.2478 25.908 45.3074 26.0584C45.3654 26.2041 45.4541 26.3361 45.5677 26.4457C45.6789 26.5533 45.8142 26.6354 45.9743 26.6933C46.1458 26.7531 46.3266 26.7824 46.5085 26.7801C46.6732 26.7791 46.8368 26.7531 46.9937 26.7038ZM45.9092 24.8988C46.042 24.7803 46.2182 24.7224 46.4405 24.7224C46.6493 24.7224 46.8175 24.7778 46.9396 24.8886C47.0617 24.9991 47.1264 25.1521 47.1374 25.3468H45.6734C45.6942 25.1744 45.778 25.015 45.9092 24.8988Z" fill="white"/>
<path d="M48.1649 24.3823H48.5553L49.4826 25.5444L50.3608 24.3823H50.7403V26.7275H50.3122V25.0175L49.4771 26.1056H49.4606L48.5933 25.0172V26.7272H48.1649V24.3823Z" fill="white"/>
<path fill-rule="evenodd" clip-rule="evenodd" d="M51.9059 24.3902C51.7759 24.4236 51.6516 24.4759 51.5373 24.5454L51.6511 24.8779C51.7487 24.8304 51.8463 24.7908 51.9439 24.7566C52.0415 24.7221 52.1662 24.7062 52.3154 24.7062C52.4346 24.7062 52.5296 24.7249 52.6028 24.7617C52.6759 24.7959 52.73 24.8487 52.768 24.9121C52.8061 24.9754 52.8305 25.0543 52.8441 25.1464C52.8576 25.2386 52.8631 25.3386 52.8631 25.4469C52.7754 25.3869 52.6755 25.3463 52.5702 25.3282C52.4685 25.3083 52.365 25.2977 52.2613 25.2965C52.1337 25.2965 52.0145 25.3152 51.9004 25.3465C51.7867 25.3782 51.6891 25.4257 51.6105 25.489C51.5302 25.5523 51.4654 25.6323 51.4207 25.7234C51.3729 25.8231 51.3488 25.9321 51.3501 26.0423C51.3501 26.2715 51.4181 26.4508 51.5534 26.5774C51.6891 26.7038 51.8679 26.7668 52.0902 26.7668C52.2909 26.7668 52.451 26.7326 52.5728 26.6642C52.6949 26.5955 52.7925 26.5166 52.8631 26.427V26.7301H53.2642V25.2914C53.2642 24.9855 53.1965 24.7487 53.0583 24.5824C52.9227 24.4165 52.6814 24.3323 52.3399 24.3323C52.1878 24.3323 52.0441 24.3532 51.9059 24.3902ZM52.6221 26.2902C52.5245 26.3586 52.3969 26.39 52.2397 26.39C52.1015 26.39 51.9929 26.3558 51.9172 26.2899C51.8411 26.2215 51.8031 26.1319 51.8031 26.021C51.8031 25.9555 51.8167 25.9001 51.8466 25.85C51.8766 25.8 51.9172 25.7604 51.9632 25.7288C52.0137 25.6956 52.0696 25.6715 52.1285 25.6575C52.191 25.6417 52.2532 25.6338 52.3183 25.6338C52.53 25.6338 52.7113 25.6838 52.8605 25.7892V26.0869C52.7902 26.1643 52.7101 26.2329 52.6221 26.2902ZM57.0465 23.5574C57.1332 23.5181 57.2144 23.4522 57.2904 23.3547L57.0572 23.0254C56.9976 23.1045 56.9299 23.1596 56.8539 23.1888C56.7733 23.2197 56.6898 23.2426 56.6045 23.2572L56.5233 23.2714C56.4528 23.2835 56.3771 23.2968 56.2955 23.3101C56.1648 23.3338 56.0374 23.3727 55.916 23.426C55.7234 23.5077 55.569 23.6182 55.4524 23.7578C55.3358 23.8975 55.2436 24.0555 55.1811 24.2297C55.1178 24.4061 55.0751 24.589 55.0539 24.775C55.032 24.965 55.0213 25.1464 55.0213 25.3203C55.0213 25.5445 55.051 25.7471 55.1106 25.9289C55.1705 26.111 55.2543 26.2636 55.3654 26.3874C55.4766 26.5141 55.6096 26.6091 55.7669 26.6775C55.9241 26.7459 56.1003 26.7801 56.2981 26.7801C56.4798 26.7801 56.648 26.7459 56.7997 26.6826C56.946 26.6217 57.0787 26.5332 57.1902 26.4219C57.2985 26.3136 57.3855 26.1844 57.4451 26.0397C57.5072 25.8947 57.5372 25.7392 57.5372 25.5758C57.5372 25.3994 57.5102 25.2389 57.4586 25.0964C57.4111 24.9605 57.3354 24.8359 57.2363 24.7303C57.137 24.6265 57.0157 24.5454 56.8809 24.4928C56.7326 24.4354 56.5742 24.4068 56.4148 24.4086C56.3117 24.4086 56.2115 24.4219 56.1138 24.4482C56.0189 24.4745 55.9277 24.5126 55.8426 24.5615C55.7599 24.608 55.6843 24.6656 55.6177 24.7325C55.5526 24.7987 55.4985 24.8725 55.4605 24.9567H55.4495C55.4579 24.8487 55.4714 24.7382 55.4956 24.6249C55.5201 24.5115 55.5552 24.4032 55.6016 24.3006C55.6477 24.198 55.7073 24.1055 55.7804 24.0213C55.8588 23.9363 55.955 23.8689 56.0623 23.8237C56.1803 23.7684 56.3052 23.7286 56.4338 23.7053L56.5188 23.6901C56.6035 23.6749 56.6844 23.6603 56.7617 23.6445C56.8648 23.6236 56.9596 23.5966 57.0465 23.5574ZM55.5391 25.8105C55.4972 25.6774 55.477 25.5387 55.4795 25.3994C55.4976 25.3195 55.5307 25.2436 55.5771 25.1755C55.6232 25.1043 55.6828 25.0413 55.7533 24.9855C55.9126 24.8629 56.1094 24.7971 56.3117 24.7987C56.5639 24.7987 56.7537 24.875 56.8864 25.0254C57.0195 25.1781 57.0846 25.3678 57.0846 25.597C57.0846 25.7104 57.0626 25.8133 57.025 25.908C56.9883 26.0014 56.933 26.0866 56.8622 26.1586C56.7914 26.2305 56.7066 26.2878 56.6129 26.3269C56.5153 26.3691 56.4093 26.3903 56.2901 26.3903C56.1709 26.3903 56.0623 26.3665 55.9621 26.319C55.8625 26.2725 55.7745 26.205 55.7044 26.1214C55.6309 26.0283 55.5749 25.923 55.5391 25.8105ZM60.8231 24.3823H60.3946V26.7275H60.8231V24.3823ZM58.1551 24.3823H58.5836V25.0859H58.9796C59.1665 25.0859 59.3182 25.1097 59.4403 25.1543C59.5624 25.1993 59.66 25.2598 59.7332 25.3336C59.8063 25.4073 59.8578 25.4944 59.8878 25.5916C59.9174 25.6892 59.9339 25.7892 59.9339 25.8947C59.9339 26.0001 59.9174 26.1005 59.8823 26.2006C59.8498 26.3007 59.7928 26.3874 59.7167 26.4666C59.641 26.5458 59.5379 26.6091 59.4078 26.6566C59.2776 26.7038 59.1204 26.7301 58.9306 26.7301H58.1526V24.3823H58.1551ZM58.5836 25.4783V26.3374H58.8955C59.1098 26.3374 59.2615 26.3007 59.3482 26.2266C59.4351 26.1528 59.4783 26.0476 59.4783 25.908C59.4783 25.7655 59.4323 25.6578 59.3456 25.5837C59.256 25.5099 59.1069 25.4729 58.901 25.4729H58.5836V25.4783Z" fill="white"/>
<path d="M63.6563 26.39C63.5532 26.5192 63.4176 26.6167 63.2549 26.6826C63.0879 26.7493 62.9093 26.7833 62.7291 26.7826C62.5498 26.785 62.3716 26.7556 62.203 26.6959C62.0515 26.6419 61.913 26.5575 61.7964 26.4482C61.6812 26.3387 61.5906 26.2067 61.5306 26.0606C61.4661 25.9005 61.4339 25.7296 61.4359 25.5574C61.4359 25.3864 61.4655 25.2281 61.528 25.078C61.5876 24.9276 61.6743 24.7987 61.7829 24.6904C61.8914 24.5799 62.0213 24.4957 62.1679 24.4298C62.3223 24.3629 62.4897 24.3296 62.6585 24.3323C62.8509 24.3323 63.03 24.356 63.1927 24.4032C63.3554 24.4507 63.4936 24.5299 63.6073 24.6407L63.4095 24.97C63.3139 24.8848 63.2012 24.8201 63.0787 24.78C62.9622 24.7431 62.8405 24.7245 62.7181 24.7249C62.6099 24.7249 62.5068 24.7458 62.4063 24.7854C62.3076 24.8245 62.2175 24.8818 62.1408 24.9542C62.0628 25.0291 62.001 25.1187 61.9591 25.2177C61.913 25.3203 61.8914 25.4336 61.8914 25.56C61.8914 25.6892 61.9156 25.8051 61.9617 25.9051C62.0077 26.0081 62.0702 26.0951 62.1489 26.1686C62.2275 26.2427 62.3196 26.2978 62.4253 26.3349C62.5313 26.3716 62.6424 26.3928 62.7616 26.3928C62.9079 26.3928 63.0381 26.3637 63.1547 26.3083C63.2674 26.2548 63.3686 26.1806 63.453 26.0898L63.6563 26.39ZM63.8757 24.3823H66.0746V24.7987H65.1905V26.7272H64.7623V24.7987H63.8786V24.3823H63.8757Z" fill="white"/>
<path fill-rule="evenodd" clip-rule="evenodd" d="M66.9693 24.3826H66.5408V27.7709H66.9693V26.6195C67.0559 26.6749 67.159 26.7145 67.2782 26.7408C67.3974 26.7671 67.5221 26.7801 67.6497 26.7801C67.8395 26.7801 68.0102 26.7459 68.1649 26.6829C68.3132 26.6205 68.4476 26.5301 68.5605 26.4169C68.6716 26.3032 68.7557 26.1714 68.8153 26.016C68.8749 25.8608 68.9049 25.6945 68.9049 25.5182C68.9049 25.344 68.8778 25.1834 68.8263 25.0384C68.7777 24.9007 68.7022 24.7736 68.604 24.6644C68.5076 24.5579 68.388 24.4742 68.2541 24.4193C68.1078 24.3575 67.9497 24.327 67.7905 24.3297C67.6226 24.3297 67.4654 24.3614 67.3163 24.4247C67.1671 24.488 67.0505 24.564 66.9693 24.659V24.3826ZM67.2676 24.8174C67.3897 24.754 67.5224 24.7224 67.6661 24.7224C67.7908 24.7224 67.902 24.7407 68.0025 24.7803C68.1001 24.8199 68.1813 24.8753 68.2493 24.9491C68.3169 25.0229 68.3685 25.1074 68.401 25.2072C68.4361 25.3073 68.4526 25.4156 68.4526 25.534C68.4526 25.6607 68.4307 25.7737 68.393 25.8792C68.3574 25.9791 68.301 26.0707 68.2274 26.148C68.1534 26.2244 68.0638 26.2845 67.9645 26.3244C67.8538 26.37 67.7346 26.3924 67.6146 26.3903C67.4983 26.3903 67.3897 26.3773 67.2866 26.351C67.1737 26.3208 67.0666 26.2727 66.9696 26.2085V25.0463C67.0453 24.957 67.1458 24.8807 67.2676 24.8174ZM72.1908 24.3823H71.7623V26.7275H72.1908V24.3823ZM69.5203 24.3823H69.9487V25.0859H70.3444C70.5316 25.0859 70.6833 25.1097 70.8054 25.1543C70.9275 25.1993 71.0251 25.2598 71.0983 25.3335C71.1714 25.4073 71.223 25.4944 71.2526 25.5916C71.2826 25.6892 71.2987 25.7892 71.2987 25.8947C71.2987 26.0001 71.2826 26.1005 71.2474 26.2006C71.2149 26.3006 71.1579 26.3874 71.0818 26.4666C71.0061 26.5457 70.903 26.6091 70.7729 26.6566C70.6427 26.7038 70.4855 26.73 70.2957 26.73H69.5177V24.3823H69.5203ZM69.9516 25.4783V26.3374H70.2635C70.4774 26.3374 70.6295 26.3006 70.7162 26.2265C70.8028 26.1528 70.8463 26.0476 70.8463 25.908C70.8463 25.7655 70.8003 25.6578 70.7136 25.5837C70.624 25.5099 70.4749 25.4729 70.269 25.4729H69.9516V25.4783Z" fill="white"/>
<path d="M74.2459 25.5128L75.1622 26.7275H74.6364L73.9286 25.7788L73.2101 26.7275H72.7114L73.6222 25.5337L72.7655 24.3823H73.2916L73.945 25.2677L74.609 24.3823H75.108L74.2459 25.5128ZM36.6103 29.626H35.2955V31.5811H34.867V29.2361H37.0385V31.5811H36.6103V29.626ZM39.4703 29.6522H38.6245L38.5972 30.0474C38.5675 30.3822 38.5269 30.651 38.4699 30.8562C38.4129 31.062 38.3423 31.2201 38.2611 31.3306C38.1799 31.4414 38.0849 31.5177 37.9763 31.5548C37.8643 31.5947 37.7459 31.6143 37.6268 31.6127L37.5942 31.2068C37.6403 31.2093 37.6944 31.1988 37.754 31.1726C37.8139 31.1463 37.8735 31.0883 37.9303 31.0016C37.9873 30.9116 38.0388 30.7853 38.0849 30.6219C38.131 30.4559 38.1609 30.24 38.177 29.9683L38.2205 29.2384H39.8987V31.5836H39.4703V29.6522Z" fill="white"/>
<path fill-rule="evenodd" clip-rule="evenodd" d="M41.0537 29.2415C40.9152 29.2783 40.7905 29.3308 40.6848 29.3967L40.7989 29.7289C40.8965 29.6814 40.9941 29.6418 41.0914 29.6076C41.1891 29.5734 41.3141 29.5576 41.4629 29.5576C41.5824 29.5576 41.6771 29.5759 41.7503 29.6127C41.8237 29.6472 41.8779 29.6997 41.9159 29.7631C41.9536 29.8264 41.9781 29.9056 41.9916 29.9974C42.0051 30.0899 42.0106 30.1899 42.0106 30.2979C41.9229 30.238 41.823 30.1975 41.7177 30.1795C41.616 30.1596 41.5125 30.149 41.4088 30.1478C41.2815 30.1478 41.162 30.1662 41.0483 30.1979C40.9342 30.2295 40.8366 30.277 40.758 30.3404C40.6777 30.4036 40.6129 30.4837 40.5682 30.5747C40.5206 30.6744 40.4966 30.7834 40.498 30.8936C40.498 31.1225 40.5656 31.3021 40.7013 31.4284C40.8366 31.5548 41.0157 31.6181 41.238 31.6181C41.4387 31.6181 41.5985 31.5839 41.7206 31.5152C41.8424 31.4468 41.94 31.3676 42.0106 31.278V31.5811H42.412V30.1424C42.412 29.8369 42.3441 29.5997 42.2058 29.4337C42.0702 29.2675 41.8289 29.1836 41.4874 29.1836C41.3409 29.1837 41.195 29.2034 41.0537 29.2415ZM41.7722 31.1409C41.6749 31.2096 41.5473 31.2413 41.3901 31.2413C41.249 31.2413 41.1433 31.2071 41.0676 31.1409C40.9916 31.0725 40.9535 30.9829 40.9535 30.8724C40.9535 30.8065 40.9671 30.7511 40.997 30.701C41.0267 30.651 41.0676 30.6114 41.1137 30.5798C41.1597 30.5481 41.2164 30.5243 41.2789 30.5085C41.3409 30.4928 41.4047 30.4849 41.4687 30.4851C41.68 30.4851 41.8618 30.5351 42.0109 30.6402V30.9379C41.9405 31.0153 41.8603 31.0836 41.7722 31.1409Z" fill="white"/>
<path d="M42.8318 29.2361H45.0307V29.6522H44.1467V31.5811H43.7185V29.6526H42.8347V29.2361H42.8318Z" fill="white"/>
<path fill-rule="evenodd" clip-rule="evenodd" d="M47.0317 31.5573C47.1944 31.5073 47.3326 31.4306 47.4518 31.3255L47.3217 30.9987C47.2431 31.0674 47.1374 31.1254 47.0098 31.1729C46.8826 31.2204 46.7389 31.2438 46.5816 31.2438C46.3458 31.2438 46.1506 31.1833 45.9959 31.0595C45.8413 30.9357 45.7575 30.7618 45.7385 30.5402H47.5929C47.6116 30.4588 47.62 30.3663 47.62 30.2583C47.62 30.0978 47.5901 29.9528 47.5304 29.821C47.4749 29.6931 47.3937 29.5776 47.2917 29.4812C47.1887 29.3855 47.067 29.311 46.9341 29.2624C46.7949 29.2094 46.6468 29.1825 46.4976 29.1833C46.2968 29.1833 46.1206 29.2175 45.9663 29.2808C45.8203 29.341 45.6883 29.4298 45.5784 29.5417C45.4716 29.653 45.3894 29.7849 45.3371 29.929C45.28 30.0826 45.2515 30.245 45.253 30.4084C45.253 30.5931 45.2855 30.7615 45.3451 30.9119C45.4051 31.062 45.4943 31.1912 45.6055 31.2992C45.7166 31.4072 45.8522 31.4889 46.0124 31.5469C46.1837 31.6067 46.3644 31.6362 46.5462 31.6339C46.7063 31.6339 46.869 31.6073 47.0317 31.5573ZM45.9447 29.7498C46.0774 29.6313 46.2537 29.5734 46.476 29.5734C46.6876 29.5734 46.8529 29.6313 46.975 29.7393C47.0968 29.8502 47.1619 30.0028 47.1728 30.1979H45.7089C45.7295 30.0253 45.8134 29.8661 45.9447 29.7498ZM47.8288 29.2361H48.371L49.1977 30.3666L48.314 31.5811H47.7882L48.7151 30.3663L47.8288 29.2361ZM49.3034 29.2361H49.7319V31.5811H49.3034V29.2361ZM51.2635 31.5811L50.3202 30.3663L51.2013 29.2358H50.6697L49.8375 30.3663L50.7322 31.5811H51.2635ZM53.221 31.5573C53.3837 31.5073 53.5219 31.4306 53.6412 31.3255L53.511 30.9987C53.4324 31.0674 53.3267 31.1254 53.1995 31.1729C53.0719 31.2204 52.9282 31.2438 52.771 31.2438C52.5351 31.2438 52.3399 31.1833 52.1852 31.0595C52.0309 30.9357 51.9468 30.7618 51.9278 30.5402H53.7823C53.8013 30.4588 53.8093 30.3663 53.8093 30.2583C53.8093 30.0978 53.7797 29.9528 53.7198 29.821C53.6643 29.6932 53.5832 29.5777 53.4814 29.4812C53.3782 29.3855 53.2565 29.311 53.1234 29.2624C52.9842 29.2094 52.8362 29.1825 52.6869 29.1833C52.4865 29.1833 52.3102 29.2175 52.1556 29.2808C52.0098 29.3411 51.8779 29.4298 51.768 29.5417C51.661 29.6529 51.5788 29.7848 51.5267 29.929C51.4694 30.0825 51.441 30.245 51.4426 30.4084C51.4426 30.5931 51.4752 30.7615 51.5348 30.9119C51.5944 31.062 51.6839 31.1912 51.7951 31.2992C51.9062 31.4072 52.0416 31.4889 52.2017 31.5469C52.3731 31.6067 52.5539 31.6362 52.7358 31.6339C52.9006 31.6327 53.0642 31.6069 53.221 31.5573ZM52.134 29.7498C52.2671 29.6313 52.4433 29.5734 52.6656 29.5734C52.8744 29.5734 53.0422 29.6313 53.1643 29.7393C53.2864 29.8502 53.3515 30.0028 53.3621 30.1979H51.8982C51.9189 30.0253 52.0027 29.8661 52.134 29.7498ZM55.5475 28.4483C55.2952 28.4483 55.157 28.3112 55.1354 28.0372H54.7314C54.7314 28.1424 54.7504 28.2374 54.7855 28.327C54.821 28.4166 54.8725 28.4929 54.9402 28.5563C55.0078 28.6196 55.0948 28.6696 55.195 28.7089C55.2952 28.7485 55.4118 28.7668 55.5446 28.7668C55.6667 28.7668 55.7752 28.7485 55.8729 28.7089C55.9705 28.6722 56.0517 28.6196 56.1222 28.5563C56.1899 28.4929 56.2443 28.4166 56.282 28.327C56.32 28.2374 56.3391 28.1424 56.3391 28.0372H55.9379C55.9189 28.3112 55.7859 28.4483 55.5475 28.4483ZM54.3896 29.2358V31.5811H54.8181L56.2115 29.834V31.5811H56.64V29.2358H56.2115L54.8181 30.9829V29.2358H54.3896Z" fill="white"/>
</g>
</svg>
