<svg width="18" height="18" viewBox="0 0 18 18" fill="none" xmlns="http://www.w3.org/2000/svg">
<g opacity="0.6">
<path d="M13.5 2.25H7.5C6.90326 2.25 6.33097 2.48705 5.90901 2.90901C5.48705 3.33097 5.25 3.90326 5.25 4.5V5.25H4.5C3.90326 5.25 3.33097 5.48705 2.90901 5.90901C2.48705 6.33097 2.25 6.90326 2.25 7.5V13.5C2.25 14.0967 2.48705 14.669 2.90901 15.091C3.33097 15.5129 3.90326 15.75 4.5 15.75H10.5C11.0967 15.75 11.669 15.5129 12.091 15.091C12.5129 14.669 12.75 14.0967 12.75 13.5V12.75H13.5C14.0967 12.75 14.669 12.5129 15.091 12.091C15.5129 11.669 15.75 11.0967 15.75 10.5V4.5C15.75 3.90326 15.5129 3.33097 15.091 2.90901C14.669 2.48705 14.0967 2.25 13.5 2.25ZM11.25 13.5C11.25 13.6989 11.171 13.8897 11.0303 14.0303C10.8897 14.171 10.6989 14.25 10.5 14.25H4.5C4.30109 14.25 4.11032 14.171 3.96967 14.0303C3.82902 13.8897 3.75 13.6989 3.75 13.5V7.5C3.75 7.30109 3.82902 7.11032 3.96967 6.96967C4.11032 6.82902 4.30109 6.75 4.5 6.75H10.5C10.6989 6.75 10.8897 6.82902 11.0303 6.96967C11.171 7.11032 11.25 7.30109 11.25 7.5V13.5ZM14.25 10.5C14.25 10.6989 14.171 10.8897 14.0303 11.0303C13.8897 11.171 13.6989 11.25 13.5 11.25H12.75V7.5C12.75 6.90326 12.5129 6.33097 12.091 5.90901C11.669 5.48705 11.0967 5.25 10.5 5.25H6.75V4.5C6.75 4.30109 6.82902 4.11032 6.96967 3.96967C7.11032 3.82902 7.30109 3.75 7.5 3.75H13.5C13.6989 3.75 13.8897 3.82902 14.0303 3.96967C14.171 4.11032 14.25 4.30109 14.25 4.5V10.5Z" fill="white"/>
</g>
</svg>
