<svg width="10" height="12" viewBox="0 0 10 12" fill="none" xmlns="http://www.w3.org/2000/svg">
<path d="M3.30357 6.75H2.41071C2.26339 6.75 2.14286 6.62344 2.14286 6.46875V5.53125C2.14286 5.37656 2.26339 5.25 2.41071 5.25H3.30357C3.45089 5.25 3.57143 5.37656 3.57143 5.53125V6.46875C3.57143 6.62344 3.45089 6.75 3.30357 6.75ZM5.71429 6.46875V5.53125C5.71429 5.37656 5.59375 5.25 5.44643 5.25H4.55357C4.40625 5.25 4.28571 5.37656 4.28571 5.53125V6.46875C4.28571 6.62344 4.40625 6.75 4.55357 6.75H5.44643C5.59375 6.75 5.71429 6.62344 5.71429 6.46875ZM7.85714 6.46875V5.53125C7.85714 5.37656 7.73661 5.25 7.58929 5.25H6.69643C6.54911 5.25 6.42857 5.37656 6.42857 5.53125V6.46875C6.42857 6.62344 6.54911 6.75 6.69643 6.75H7.58929C7.73661 6.75 7.85714 6.62344 7.85714 6.46875ZM5.71429 8.71875V7.78125C5.71429 7.62656 5.59375 7.5 5.44643 7.5H4.55357C4.40625 7.5 4.28571 7.62656 4.28571 7.78125V8.71875C4.28571 8.87344 4.40625 9 4.55357 9H5.44643C5.59375 9 5.71429 8.87344 5.71429 8.71875ZM3.57143 8.71875V7.78125C3.57143 7.62656 3.45089 7.5 3.30357 7.5H2.41071C2.26339 7.5 2.14286 7.62656 2.14286 7.78125V8.71875C2.14286 8.87344 2.26339 9 2.41071 9H3.30357C3.45089 9 3.57143 8.87344 3.57143 8.71875ZM7.85714 8.71875V7.78125C7.85714 7.62656 7.73661 7.5 7.58929 7.5H6.69643C6.54911 7.5 6.42857 7.62656 6.42857 7.78125V8.71875C6.42857 8.87344 6.54911 9 6.69643 9H7.58929C7.73661 9 7.85714 8.87344 7.85714 8.71875ZM10 2.625V10.875C10 11.4961 9.52009 12 8.92857 12H1.07143C0.479911 12 0 11.4961 0 10.875V2.625C0 2.00391 0.479911 1.5 1.07143 1.5H2.14286V0.28125C2.14286 0.126563 2.26339 0 2.41071 0H3.30357C3.45089 0 3.57143 0.126563 3.57143 0.28125V1.5H6.42857V0.28125C6.42857 0.126563 6.54911 0 6.69643 0H7.58929C7.73661 0 7.85714 0.126563 7.85714 0.28125V1.5H8.92857C9.52009 1.5 10 2.00391 10 2.625ZM8.92857 10.7344V3.75H1.07143V10.7344C1.07143 10.8117 1.1317 10.875 1.20536 10.875H8.79464C8.8683 10.875 8.92857 10.8117 8.92857 10.7344Z" fill="#BDBDBD"/>
</svg>
