<svg width="7" height="8" viewBox="0 0 7 8" fill="none" xmlns="http://www.w3.org/2000/svg">
<path d="M5.05475 3.19299L5.05475 3.19299L5.93639 4.17197C6.0212 4.07699 6.0212 3.92299 5.93639 3.82802L5.97369 3.79472L5.97368 3.79471L5.43645 3.19299C5.33178 3.07575 5.15944 3.07575 5.05475 3.19299ZM5.43644 4.80699L5.97368 4.20527L5.09205 4.42976C5.00724 4.52473 5.00724 4.67873 5.09205 4.77371L5.05475 4.80701C5.05475 4.80701 5.05475 4.80701 5.05475 4.80701C5.10638 4.86483 5.1754 4.89494 5.24559 4.89494C5.31579 4.89494 5.38481 4.86483 5.43643 4.807C5.43643 4.80699 5.43643 4.80699 5.43644 4.80699ZM5.14693 4.29321L5.05475 4.39646L5.09205 3.57024L5.05475 3.60354L5.05475 3.60354L5.14693 3.70679H2.72819C2.57546 3.70679 2.46104 3.84355 2.46104 4C2.46104 4.15645 2.57546 4.29321 2.72819 4.29321H5.14693ZM5.06857 6.75679V5.83303C5.06857 5.67658 4.95414 5.53982 4.80141 5.53982C4.64868 5.53982 4.53426 5.67658 4.53426 5.83303V6.46357H1.48431V1.53643H4.53426V2.16697C4.53426 2.32342 4.64868 2.46018 4.80141 2.46018C4.95414 2.46018 5.06857 2.32342 5.06857 2.16697V1.24321C5.06857 1.08677 4.95414 0.95 4.80141 0.95H1.21716C1.06442 0.95 0.95 1.08677 0.95 1.24321V6.75679C0.95 6.91323 1.06442 7.05 1.21716 7.05H4.80141C4.95414 7.05 5.06857 6.91323 5.06857 6.75679Z" fill="white" stroke="white" stroke-width="0.1"/>
</svg>
