<svg width="15" height="9" viewBox="0 0 15 9" fill="none" xmlns="http://www.w3.org/2000/svg">
<path d="M7.50938 1.28571C10.4788 1.28571 12.5487 3.222 13.4494 4.266C12.5737 5.44693 10.5037 7.71429 7.50938 7.71429C4.74688 7.71429 2.55312 5.44114 1.58562 4.23836C2.51875 3.17957 4.59625 1.28571 7.50938 1.28571ZM7.50938 0C2.77875 0 0 4.21136 0 4.21136C0 4.21136 3.02188 9 7.50938 9C12.3425 9 15 4.21136 15 4.21136C15 4.21136 12.3181 0 7.50938 0ZM7.5 1.92857C6.11875 1.92857 5 3.07993 5 4.5C5 5.92007 6.11875 7.07143 7.5 7.07143C8.88062 7.07143 10 5.92007 10 4.5C10 3.07993 8.88062 1.92857 7.5 1.92857ZM7.4975 4.49936C7.145 4.86193 6.57312 4.86193 6.22 4.49936C5.86687 4.13679 5.86687 3.54793 6.22 3.18536C6.5725 2.82279 7.14438 2.82279 7.4975 3.18536C7.85063 3.54793 7.85063 4.13614 7.4975 4.49936Z" fill="#A9A8AC"/>
</svg>
