<svg width="16" height="16" viewBox="0 0 16 16" fill="none" xmlns="http://www.w3.org/2000/svg">
<path d="M8.00033 11.3332C8.88438 11.3332 9.73223 10.982 10.3573 10.3569C10.9825 9.73178 11.3337 8.88393 11.3337 7.99988C11.3345 7.35471 11.1443 6.72375 10.787 6.18655L13.1737 3.80655C13.2358 3.74439 13.2851 3.67059 13.3188 3.58938C13.3524 3.50816 13.3697 3.42112 13.3697 3.33321C13.3697 3.24531 13.3524 3.15826 13.3188 3.07705C13.2851 2.99583 13.2358 2.92204 13.1737 2.85988C13.1115 2.79772 13.0377 2.74841 12.9565 2.71477C12.8753 2.68113 12.7882 2.66382 12.7003 2.66382C12.6124 2.66382 12.5254 2.68113 12.4442 2.71477C12.3629 2.74841 12.2892 2.79772 12.227 2.85988L9.81366 5.24655C9.27646 4.88926 8.64549 4.69904 8.00033 4.69988C7.12206 4.70866 6.28275 5.06373 5.66482 5.6879C5.04689 6.31207 4.70028 7.1549 4.70033 8.03321C4.69948 8.67838 4.8897 9.30935 5.24699 9.84655L2.86033 12.1932C2.73479 12.3187 2.66426 12.489 2.66426 12.6665C2.66426 12.8441 2.73479 13.0143 2.86033 13.1399C2.98586 13.2654 3.15612 13.3359 3.33366 13.3359C3.51119 13.3359 3.68146 13.2654 3.80699 13.1399L6.18699 10.7532C6.72044 11.1223 7.3517 11.3242 8.00033 11.3332ZM10.0337 7.99988C10.0419 8.34658 9.9599 8.68948 9.79563 8.99491C9.63136 9.30034 9.39049 9.5578 9.09666 9.74203C8.80284 9.92626 8.46616 10.0309 8.11967 10.0457C7.77319 10.0606 7.4288 9.98502 7.12033 9.82655L9.78699 7.15988C9.92923 7.41865 10.0134 7.70529 10.0337 7.99988ZM6.00033 7.99988C5.99206 7.65317 6.07408 7.31028 6.23836 7.00485C6.40263 6.69942 6.6435 6.44196 6.93732 6.25773C7.23114 6.0735 7.56782 5.96884 7.91431 5.95402C8.2608 5.93921 8.60518 6.01474 8.91366 6.17321L6.24699 8.83988C6.10475 8.58111 6.02058 8.29447 6.00033 7.99988ZM2.20033 10.6665C1.79028 10.2668 1.4299 9.81916 1.12699 9.33321C0.852154 8.94045 0.692804 8.47856 0.666992 7.99988C0.674582 7.704 0.74503 7.41311 0.873659 7.14655C1.01203 6.85414 1.17718 6.57517 1.36699 6.31321C1.83897 5.69691 2.38788 5.14352 3.00033 4.66655C4.40051 3.4662 6.15857 2.76298 8.00033 2.66655C8.50381 2.66823 9.00525 2.73091 9.49366 2.85321C9.58152 2.87137 9.66482 2.90708 9.73855 2.9582C9.81229 3.00932 9.87495 3.07479 9.92277 3.15071C9.9706 3.22662 10.0026 3.3114 10.0169 3.39998C10.0312 3.48856 10.0274 3.57911 10.0059 3.6662C9.98433 3.7533 9.94542 3.83515 9.89148 3.90685C9.83755 3.97855 9.76969 4.03862 9.69199 4.08347C9.61428 4.12832 9.52832 4.15703 9.43925 4.16787C9.35019 4.1787 9.25985 4.17145 9.17366 4.14655C8.78957 4.05227 8.3958 4.00305 8.00033 3.99988C6.99962 4.03108 6.02197 4.30812 5.15366 4.80655C4.30472 5.27345 3.53517 5.87199 2.87366 6.57988C2.56072 6.90846 2.2979 7.28135 2.09366 7.68655C2.04612 7.78538 2.01461 7.89114 2.00033 7.99988C2.03889 8.22563 2.12775 8.4398 2.26033 8.62655C2.50895 9.01486 2.80205 9.37284 3.13366 9.69321C3.26273 9.81698 3.33735 9.98695 3.3411 10.1657C3.34485 10.3445 3.27743 10.5175 3.15366 10.6465C3.02989 10.7756 2.85992 10.8502 2.68113 10.854C2.50235 10.8577 2.3294 10.7903 2.20033 10.6665ZM15.3337 7.99988C15.3261 8.29576 15.2556 8.58665 15.127 8.85321C14.9993 9.14437 14.8453 9.4233 14.667 9.68655C14.1847 10.305 13.6245 10.8584 13.0003 11.3332C11.6001 12.5336 9.84208 13.2368 8.00033 13.3332C7.49684 13.3315 6.9954 13.2689 6.50699 13.1465C6.34142 13.0987 6.20082 12.9886 6.11467 12.8393C6.02851 12.6901 6.00351 12.5133 6.0449 12.346C6.0863 12.1787 6.19087 12.0339 6.33668 11.942C6.48249 11.8502 6.65822 11.8183 6.82699 11.8532C7.21108 11.9475 7.60485 11.9967 8.00033 11.9999C9.00103 11.9687 9.97868 11.6916 10.847 11.1932C11.6959 10.7263 12.4655 10.1278 13.127 9.41988C13.4399 9.0913 13.7027 8.7184 13.907 8.31321C13.9545 8.21438 13.986 8.10861 14.0003 7.99988C13.9777 7.78789 13.9045 7.58442 13.787 7.40655C13.5736 7.04547 13.3086 6.71756 13.0003 6.43321C12.8716 6.31276 12.7959 6.14625 12.7896 5.97009C12.7834 5.79394 12.8472 5.62247 12.967 5.49321C13.0874 5.36452 13.254 5.28876 13.4301 5.28251C13.6063 5.27627 13.7777 5.34004 13.907 5.45988C14.3149 5.83538 14.6654 6.26892 14.947 6.74655C15.1757 7.12675 15.3084 7.55691 15.3337 7.99988Z" fill="white" fill-opacity="0.7"/>
</svg>
