<svg width="112" height="109" viewBox="0 0 112 109" fill="none" xmlns="http://www.w3.org/2000/svg">
<g filter="url(#filter0_di_253_24)">
<path d="M35.91 48.3C34.31 48.3 33.09 47.85 32.25 46.95C31.41 46.03 30.99 44.72 30.99 43.02V31.98C30.99 30.28 31.41 28.98 32.25 28.08C33.09 27.16 34.31 26.7 35.91 26.7C37.51 26.7 38.73 27.16 39.57 28.08C40.41 28.98 40.83 30.28 40.83 31.98V33.78H37.71V31.77C37.71 30.39 37.14 29.7 36 29.7C34.86 29.7 34.29 30.39 34.29 31.77V43.26C34.29 44.62 34.86 45.3 36 45.3C37.14 45.3 37.71 44.62 37.71 43.26V39.15H36.06V36.15H40.83V43.02C40.83 44.72 40.41 46.03 39.57 46.95C38.73 47.85 37.51 48.3 35.91 48.3Z" fill="white"/>
<path d="M45.4987 27H49.9687L53.3887 48H50.0887L49.4887 43.83V43.89H45.7387L45.1387 48H42.0787L45.4987 27ZM49.0987 41.04L47.6287 30.66H47.5687L46.1287 41.04H49.0987Z" fill="white"/>
<path d="M54.9898 27H59.6998L61.7998 42.03H61.8598L63.9598 27H68.6698V48H65.5498V32.1H65.4898L63.0898 48H60.3298L57.9298 32.1H57.8698V48H54.9898V27Z" fill="white"/>
<path d="M71.1323 27H80.1323V30H74.4323V35.55H78.9623V38.55H74.4323V45H80.1323V48H71.1323V27Z" fill="white"/>
<path d="M30.36 53H33.69L35.85 69.29H35.91L38.07 53H41.1L37.92 74H33.54L30.36 53Z" fill="white"/>
<path d="M42.6851 53H45.9851V74H42.6851V53Z" fill="white"/>
<path d="M47.7965 71.06L53.9165 56H48.0965V53H57.4565V55.94L51.3365 71H57.4565V74H47.7965V71.06Z" fill="white"/>
<path d="M64.0957 74.3C62.4757 74.3 61.2357 73.84 60.3757 72.92C59.5157 72 59.0857 70.7 59.0857 69.02V57.98C59.0857 56.3 59.5157 55 60.3757 54.08C61.2357 53.16 62.4757 52.7 64.0957 52.7C65.7157 52.7 66.9557 53.16 67.8157 54.08C68.6757 55 69.1057 56.3 69.1057 57.98V69.02C69.1057 70.7 68.6757 72 67.8157 72.92C66.9557 73.84 65.7157 74.3 64.0957 74.3ZM64.0957 71.3C65.2357 71.3 65.8057 70.61 65.8057 69.23V57.77C65.8057 56.39 65.2357 55.7 64.0957 55.7C62.9557 55.7 62.3857 56.39 62.3857 57.77V69.23C62.3857 70.61 62.9557 71.3 64.0957 71.3Z" fill="white"/>
<path d="M71.3374 53H76.2274C77.9274 53 79.1674 53.4 79.9474 54.2C80.7274 54.9799 81.1174 56.19 81.1174 57.83V59.12C81.1174 61.3 80.3974 62.68 78.9574 63.26V63.32C79.7574 63.56 80.3174 64.0499 80.6374 64.79C80.9774 65.53 81.1474 66.52 81.1474 67.76V71.45C81.1474 72.0499 81.1674 72.54 81.2074 72.92C81.2474 73.28 81.3474 73.64 81.5074 74H78.1474C78.0274 73.66 77.9474 73.34 77.9074 73.04C77.8674 72.74 77.8474 72.2 77.8474 71.42V67.58C77.8474 66.62 77.6874 65.95 77.3674 65.57C77.0674 65.1899 76.5374 65 75.7774 65H74.6374V74H71.3374V53ZM75.8374 62C76.4974 62 76.9874 61.83 77.3074 61.49C77.6474 61.15 77.8174 60.58 77.8174 59.78V58.16C77.8174 57.4 77.6774 56.85 77.3974 56.51C77.1374 56.17 76.7174 56 76.1374 56H74.6374V62H75.8374Z" fill="white"/>
</g>
<defs>
<filter id="filter0_di_253_24" x="0.359985" y="0.699951" width="111.147" height="107.6" filterUnits="userSpaceOnUse" color-interpolation-filters="sRGB">
<feFlood flood-opacity="0" result="BackgroundImageFix"/>
<feColorMatrix in="SourceAlpha" type="matrix" values="0 0 0 0 0 0 0 0 0 0 0 0 0 0 0 0 0 0 127 0" result="hardAlpha"/>
<feOffset dy="4"/>
<feGaussianBlur stdDeviation="15"/>
<feComposite in2="hardAlpha" operator="out"/>
<feColorMatrix type="matrix" values="0 0 0 0 0 0 0 0 0 0 0 0 0 0 0 0 0 0 0.1 0"/>
<feBlend mode="normal" in2="BackgroundImageFix" result="effect1_dropShadow_253_24"/>
<feBlend mode="normal" in="SourceGraphic" in2="effect1_dropShadow_253_24" result="shape"/>
<feColorMatrix in="SourceAlpha" type="matrix" values="0 0 0 0 0 0 0 0 0 0 0 0 0 0 0 0 0 0 127 0" result="hardAlpha"/>
<feOffset dy="4"/>
<feGaussianBlur stdDeviation="1"/>
<feComposite in2="hardAlpha" operator="arithmetic" k2="-1" k3="1"/>
<feColorMatrix type="matrix" values="0 0 0 0 0.340495 0 0 0 0 0.340495 0 0 0 0 0.340495 0 0 0 0.1 0"/>
<feBlend mode="normal" in2="shape" result="effect2_innerShadow_253_24"/>
</filter>
</defs>
</svg>
