<svg xmlns="http://www.w3.org/2000/svg" width="45" height="43" fill="none" viewBox="0 0 45 43">
  <path fill="#fff" d="M10.459 25.103v-6.005h9.256V32.43c0 6.726-3.366 10.57-9.858 10.57C3.366 43 0 39.156 0 32.43V10.57C0 3.844 3.366 0 9.857 0c6.492 0 9.858 3.844 9.858 10.57v4.084h-6.251v-4.505c0-3.002-1.322-4.143-3.426-4.143s-3.426 1.14-3.426 4.143v22.702c0 3.002 1.322 4.083 3.426 4.083s3.426-1.08 3.426-4.083v-7.748h-3.005ZM28.831.48l5.05 34.292L38.928.48H45l-6.492 42.04h-9.857L22.16.48h6.671Z"/>
</svg>
