<!-- icon666.com - MILLIONS vector ICONS FREE -->
<svg xmlns="http://www.w3.org/2000/svg" xmlns:xlink="http://www.w3.org/1999/xlink"
    xmlns:serif="http://www.serif.com/" viewBox="0 0 32 32" version="1.1" xml:space="preserve"
    style="fill-rule:evenodd;clip-rule:evenodd;stroke-linejoin:round;stroke-miterlimit:2;"><circle cx="16" cy="16" r="13" style="fill:#ebba0c;"></circle><path d="M6.403,24.765c6.609,5.408 14.346,3.536 18.316,-1.134c3.685,-4.336 5.2,-10.236 0.118,-17.162c4.899,4.697 5.699,12.26 1.06,17.945c-4.549,5.574 -13.905,6.468 -19.494,0.351Z" style="fill:#c49b0a;"></path><path id="Coin" d="M15.039,9.706c-0.505,0.101 -0.983,0.327 -1.386,0.664c-0.001,-0 -0.001,0 -0.001,0.001c-0.72,0.599 -1.138,1.485 -1.142,2.421c-0.005,0.936 0.403,1.827 1.116,2.434c0,-0 3.45,2.936 3.45,2.936c0.265,0.225 0.416,0.556 0.414,0.903c-0.001,0.348 -0.156,0.677 -0.423,0.899l-0.003,0.002c-0.236,0.197 -0.578,0.285 -0.848,0.255c-0.27,-0.03 -0.594,-0.203 -0.772,-0.435c-0.529,-0.689 -1.011,-1.318 -1.011,-1.318c-0.336,-0.438 -0.965,-0.52 -1.403,-0.184c-0.437,0.336 -0.52,0.964 -0.184,1.402c0,-0 0.483,0.629 1.012,1.318c0.314,0.409 0.721,0.73 1.181,0.941l0,1.44c0,0.715 0.628,1.001 0.961,1c0.333,-0.002 1.039,-0.28 1.039,-1.009l0,-1.227c0.476,-0.109 0.924,-0.328 1.306,-0.646c0.72,-0.6 1.141,-1.49 1.145,-2.427c0.005,-0.937 -0.404,-1.829 -1.118,-2.437l-3.449,-2.936c-0.264,-0.225 -0.415,-0.554 -0.413,-0.9c0.001,-0.347 0.156,-0.674 0.422,-0.896l0.001,-0.001c0.236,-0.197 0.578,-0.284 0.848,-0.254c0.269,0.031 0.601,0.217 0.769,0.438c0.565,0.743 1.093,1.438 1.093,1.438c0.334,0.44 0.962,0.525 1.401,0.191c0.44,-0.334 0.525,-0.961 0.192,-1.401c-0,0 -0.529,-0.695 -1.093,-1.438c-0.296,-0.389 -0.675,-0.699 -1.104,-0.911l0,-1.354c0,-0.552 -0.448,-1 -1,-1c-0.552,0 -1,0.448 -1,1l0,1.091Z" style="fill:#fff;"></path><path id="Coin1" serif:id="Coin" d="M16,24.385c-0.262,0.001 -0.73,-0.192 -0.89,-0.614c0.09,0.053 0.226,0.099 0.378,0.112c0.547,0.049 1.051,-0.205 1.051,-1.007l0,-1.227c0.476,-0.109 0.924,-0.328 1.306,-0.646c0,-0.001 0.001,-0.002 0.002,-0.002c0.72,-0.6 1.139,-1.488 1.143,-2.425c0.004,-0.688 -0.107,-1.472 -0.623,-1.889c-0.847,-0.685 -3.382,-2.881 -3.382,-2.881c0,0 -0.074,-0.076 -0.091,-0.098l-0.471,-0.505c-0.264,-0.225 -0.415,-0.554 -0.413,-0.9c0.001,-0.347 0.168,-0.686 0.423,-0.897c0.331,-0.273 1.011,-0.469 1.633,0.153c0.425,0.425 0.408,0.441 0.408,0.441l-0.003,-0.001c-0.18,-0.179 -0.458,-0.32 -0.69,-0.347c-0.27,-0.03 -0.637,0.063 -0.849,0.255c-0.212,0.192 -0.421,0.487 -0.422,0.896c-0.002,0.346 0.149,0.675 0.413,0.9l3.449,2.936c0.714,0.608 1.123,1.5 1.118,2.437c-0.004,0.937 -0.425,1.827 -1.145,2.427c-0.382,0.318 -0.83,0.537 -1.306,0.646l0,1.227c0,0.729 -0.706,1.007 -1.039,1.009Zm-2.395,-3.71c0,-0 0.565,0.519 0.803,0.7c0.22,0.169 0.625,0.391 0.625,0.391l0.006,0.179c-0.46,-0.211 -0.867,-0.532 -1.181,-0.941l-0.253,-0.329Zm0.499,-2.484l1.089,1.419c0.13,0.169 0.429,0.446 0.615,0.476c-0.132,-0.066 -0.272,-0.18 -0.364,-0.3c-0.529,-0.689 -1.011,-1.318 -1.011,-1.318c-0.092,-0.119 -0.204,-0.212 -0.329,-0.277Zm-0.87,-3.363l3.766,3.194l0.193,0.254l-0.001,0c-0.035,-0.04 -0.074,-0.078 -0.116,-0.114c-0,0 -3.45,-2.936 -3.45,-2.936c-0.143,-0.122 -0.274,-0.255 -0.392,-0.398Zm4.302,-4.553c0.431,0.443 1.2,1.543 1.2,1.543c0.333,0.44 0.248,1.067 -0.192,1.401c-0.321,0.244 -0.743,0.264 -1.074,0.081l0.173,0.228c0.334,0.44 0.962,0.525 1.401,0.191c0.44,-0.334 0.525,-0.961 0.192,-1.401c-0,0 -0.529,-0.695 -1.093,-1.438c-0.176,-0.231 -0.38,-0.434 -0.607,-0.605Zm-0.497,-1.66c0,-0.466 -0.307,-0.788 -0.591,-0.913c0.06,0.124 0.091,0.267 0.091,0.413l0,1.531l0.5,0.323l0,-1.354Z" style="fill:#d5d5d5;"></path><path d="M23.464,9c-0.704,-0.569 -1.529,-1.246 -1.849,-1.546c-0.269,-0.253 -0.615,-0.519 -0.615,-0.923c-0,-0 0.005,-1.919 0.005,-2.531c0,-0.47 0.39,-0.996 0.995,-1c1.178,-0.007 4.822,0 6,0c0.59,0 1,0.529 1,1c-0,0.612 -0,2.531 -0,2.531c-0,0.404 -0.328,0.69 -0.615,0.923c-0.325,0.263 -1.171,0.959 -1.882,1.546c0.711,0.587 1.557,1.283 1.882,1.546c0.287,0.233 0.615,0.519 0.615,0.923l0,2.531c0,0.471 -0.365,1 -1,1c-1.179,0 -4.821,0 -6,0c-0.634,0 -1,-0.529 -1,-1l0,-2.531c0,-0.404 0.346,-0.67 0.615,-0.923c0.32,-0.3 1.145,-0.977 1.849,-1.546Z" style="fill:#808080;"></path><path d="M27.869,10.125c0.218,0.179 0.4,0.328 0.516,0.421c0.287,0.233 0.615,0.519 0.615,0.923l0,2.531c0,0.471 -0.365,1 -1,1c-1.179,-0 -4.821,0 -6,0c-0.628,0 -0.993,-0.518 -1,-0.986l0.005,-0.014c-0,0 4.829,0.018 5.995,-0c0.648,-0.01 1,-0.509 1,-0.974c-0,-0.599 0,-2.557 0,-2.557l-0.131,-0.344Zm0.131,-7.125l0,-0c0.59,-0 1,0.529 1,1c-0,0.612 -0,2.531 -0,2.531c-0,0.404 -0.328,0.69 -0.615,0.923c-0.325,0.263 -1.171,0.959 -1.882,1.546l-1.109,-0.911c0.711,-0.586 1.666,-1.372 1.991,-1.635c0.287,-0.233 0.615,-0.519 0.615,-0.923l-0,-2.531Z" style="fill:#555;"></path></svg>