<svg width="11" height="11" viewBox="0 0 11 11" fill="none" xmlns="http://www.w3.org/2000/svg">
<path d="M10.8298 10.0078L8.28295 7.46681C8.91872 6.65832 9.26334 5.6591 9.26116 4.63058C9.26116 3.71474 8.98958 2.81947 8.48077 2.05797C7.97196 1.29647 7.24876 0.702962 6.40263 0.352484C5.5565 0.00200634 4.62545 -0.0896946 3.7272 0.0889774C2.82896 0.267649 2.00387 0.70867 1.35627 1.35627C0.70867 2.00387 0.267649 2.82896 0.0889774 3.7272C-0.0896946 4.62545 0.00200634 5.5565 0.352484 6.40263C0.702962 7.24876 1.29647 7.97196 2.05797 8.48077C2.81947 8.98958 3.71474 9.26116 4.63058 9.26116C5.6591 9.26334 6.65832 8.91872 7.46681 8.28295L10.0078 10.8298C10.1168 10.9388 10.2647 11 10.4188 11C10.573 11 10.7208 10.9388 10.8298 10.8298C10.9388 10.7208 11 10.573 11 10.4188C11 10.2647 10.9388 10.1168 10.8298 10.0078ZM2.17638 7.11373C1.60152 6.55159 1.23951 5.80741 1.15213 5.00814C1.06474 4.20887 1.25738 3.40405 1.69719 2.73097C2.137 2.05789 2.79672 1.55827 3.5638 1.31734C4.33088 1.0764 5.1578 1.10909 5.90347 1.40982C6.64914 1.71055 7.26736 2.26069 7.65267 2.96639C8.03798 3.67208 8.16649 4.4896 8.01628 5.27947C7.86608 6.06935 7.44647 6.78264 6.82903 7.29765C6.21159 7.81266 5.43459 8.09748 4.63058 8.10352C3.70981 8.10271 2.82705 7.73628 2.17638 7.08479V7.11373Z" fill="#D4D4D4"/>
</svg>
