<svg width="18" height="17" viewBox="0 0 18 17" fill="none" xmlns="http://www.w3.org/2000/svg">
<path d="M8.08663 1.54906C8.43899 0.758569 9.56101 0.758571 9.91337 1.54906L11.5278 5.17082C11.6731 5.49685 11.9812 5.72069 12.3362 5.75816L16.2796 6.17436C17.1402 6.2652 17.487 7.3323 16.844 7.91169L13.8984 10.5663C13.6333 10.8052 13.5156 11.1674 13.5896 11.5166L14.4124 15.3956C14.5919 16.2422 13.6842 16.9017 12.9345 16.4693L9.49962 14.4882C9.19041 14.3098 8.80959 14.3098 8.50038 14.4882L5.06548 16.4693C4.31578 16.9017 3.40805 16.2422 3.58762 15.3956L4.41036 11.5166C4.48443 11.1674 4.36674 10.8052 4.10158 10.5663L1.15596 7.91169C0.513045 7.3323 0.859768 6.2652 1.72045 6.17436L5.66383 5.75816C6.01881 5.72069 6.3269 5.49685 6.47223 5.17082L8.08663 1.54906Z" fill="#FFBB10"/>
</svg>
