<svg width="18" height="17" viewBox="0 0 18 17" fill="none" xmlns="http://www.w3.org/2000/svg">
<path d="M8.54332 1.25262C8.7195 0.857382 9.2805 0.85738 9.45668 1.25263L11.0711 4.87438C11.2891 5.36343 11.7512 5.6992 12.2837 5.7554L16.2271 6.1716C16.6574 6.21702 16.8308 6.75057 16.5093 7.04026L13.5637 9.69483C13.1659 10.0533 12.9894 10.5966 13.1005 11.1203L13.9233 14.9993C14.013 15.4226 13.5592 15.7524 13.1843 15.5362L9.74943 13.555C9.28562 13.2875 8.71438 13.2875 8.25057 13.555L4.81567 15.5362C4.44082 15.7524 3.98696 15.4226 4.07674 14.9993L4.89948 11.1203C5.01058 10.5966 4.83405 10.0533 4.43631 9.69483L1.49068 7.04026C1.16923 6.75057 1.34259 6.21702 1.77293 6.1716L5.71631 5.7554C6.24878 5.6992 6.71092 5.36343 6.92892 4.87438L8.54332 1.25262Z" stroke="#FFBB10"/>
</svg>
