<svg width="131" height="131" viewBox="0 0 131 131" fill="none" xmlns="http://www.w3.org/2000/svg">
<path d="M65.7911 52.5743C85.5867 67.6785 119.064 104.277 108.876 114.734C97.2311 124.9 82.3844 131 65.7911 131C49.1978 131 34.06 124.9 22.7067 114.734C12.2267 104.277 45.9956 67.6785 65.7911 52.5743C65.5 52.5743 65.5 52.5743 65.7911 52.5743ZM99.8511 9.58537C89.9533 3.77605 78.8911 0 65.7911 0C52.6911 0 41.6289 3.48559 31.7311 9.58537C31.7311 9.58537 31.44 9.87583 31.7311 9.87583H32.0222C44.8311 7.26164 64.0444 18.0089 65.7911 19.1707C67.5378 18.0089 87.0422 7.26164 99.56 9.87583H99.8511C100.142 9.87583 99.8511 9.87583 99.8511 9.58537ZM19.7956 18.8803C7.56889 31.0798 0 47.3459 0 65.6452C0 80.459 4.94888 94.4013 13.3911 105.149C13.3911 105.149 13.6822 105.439 13.6822 105.149V104.858C8.73332 89.4634 34.3511 51.9933 47.4511 36.3082C47.4511 36.3082 47.4511 36.3082 47.4511 36.0177V35.7273C27.6555 16.2661 20.96 18.2993 19.7956 18.8803ZM83.5489 36.0177C83.5489 36.3082 83.5489 36.3082 83.5489 36.3082C96.6489 51.9933 122.267 89.4634 117.318 104.858V105.149H117.609C126.051 94.1109 131 80.459 131 65.6452C131 47.6364 123.722 31.0798 111.496 19.1707L111.204 18.8803C110.622 18.2993 103.636 16.2661 83.5489 36.0177Z" fill="#107B11"/>
</svg>
