<svg width="15" height="15" viewBox="0 0 15 15" fill="none" xmlns="http://www.w3.org/2000/svg">
<g opacity="0.6">
<path d="M13.6686 5.80649C13.6644 6.79332 13.2714 7.73874 12.5748 8.43774L9.38731 11.5627C9.27246 11.6664 9.12326 11.7238 8.96855 11.7238C8.81385 11.7238 8.66465 11.6664 8.5498 11.5627C8.4444 11.4475 8.38594 11.297 8.38594 11.1409C8.38594 10.9847 8.4444 10.8342 8.5498 10.719L11.7373 7.59399C11.9741 7.3572 12.1619 7.07609 12.2901 6.76671C12.4182 6.45733 12.4842 6.12574 12.4842 5.79087C12.4842 5.456 12.4182 5.1244 12.2901 4.81502C12.1619 4.50564 11.9741 4.22453 11.7373 3.98774C11.5 3.75008 11.218 3.56177 10.9075 3.43366C10.5971 3.30556 10.2643 3.2402 9.92845 3.24136C9.5926 3.24252 9.2603 3.31018 8.95074 3.44043C8.64117 3.57068 8.36046 3.76095 8.1248 4.00024L2.95605 9.18149C2.80547 9.31793 2.68419 9.48354 2.59955 9.66827C2.51491 9.85301 2.46869 10.053 2.46369 10.2561C2.45868 10.4593 2.49501 10.6613 2.57045 10.85C2.6459 11.0387 2.75889 11.21 2.90257 11.3537C3.04625 11.4974 3.21763 11.6104 3.40631 11.6858C3.59498 11.7613 3.79702 11.7976 4.00015 11.7926C4.20329 11.7876 4.40329 11.7414 4.58802 11.6568C4.77276 11.5721 4.93837 11.4508 5.0748 11.3002L6.5498 9.83149L10.2561 6.11899C10.2979 6.07847 10.3311 6.02989 10.3537 5.97618C10.3762 5.92247 10.3877 5.86475 10.3873 5.80649C10.3879 5.74634 10.3767 5.68666 10.3541 5.63089C10.3316 5.57511 10.2983 5.52434 10.2561 5.48149C10.1703 5.39885 10.0564 5.35192 9.9373 5.35024C9.87811 5.34975 9.81941 5.36111 9.76466 5.38365C9.70992 5.40619 9.66024 5.43946 9.61856 5.48149L7.03105 8.07524L4.80605 10.2877C4.69121 10.3914 4.54201 10.4488 4.3873 10.4488C4.2326 10.4488 4.0834 10.3914 3.96855 10.2877C3.91394 10.2332 3.87061 10.1684 3.84105 10.0971C3.81149 10.0258 3.79628 9.94932 3.79628 9.87212C3.79628 9.79492 3.81149 9.71848 3.84105 9.64716C3.87061 9.57585 3.91394 9.51105 3.96855 9.45649L7.65605 5.76899L8.7498 4.65024C8.98039 4.42205 9.27334 4.26718 9.59176 4.20515C9.91019 4.14312 10.2399 4.17671 10.5392 4.30167C10.8386 4.42663 11.0943 4.63739 11.2741 4.90739C11.454 5.1774 11.5499 5.49458 11.5498 5.81899C11.5503 6.03308 11.5079 6.2451 11.4253 6.44259C11.3427 6.64008 11.2214 6.81905 11.0686 6.96899L5.91855 12.1377C5.54422 12.512 5.06769 12.7674 4.54877 12.8718C4.02985 12.9763 3.49163 12.9252 3.00165 12.7249C2.51166 12.5246 2.09173 12.1841 1.79453 11.7461C1.49733 11.3081 1.33609 10.7921 1.33105 10.2627C1.33915 9.55899 1.62171 8.88622 2.11855 8.38774L7.29355 3.21274C7.81885 2.69779 8.48399 2.34871 9.20619 2.20894C9.92839 2.06917 10.6757 2.14489 11.3552 2.42668C12.0347 2.70847 12.6163 3.18387 13.0276 3.79372C13.439 4.40357 13.6619 5.12093 13.6686 5.85649V5.80649Z" fill="white"/>
</g>
</svg>
