<svg width="16" height="15" viewBox="0 0 16 15" fill="none" xmlns="http://www.w3.org/2000/svg">
<g opacity="0.6">
<path d="M12.6014 1.25H3.31592C2.7882 1.25 2.2821 1.44754 1.90896 1.79917C1.53581 2.15081 1.32617 2.62772 1.32617 3.125V11.25V11.875C1.32617 12.3723 1.53581 12.8492 1.90896 13.2008C2.2821 13.5525 2.7882 13.75 3.31592 13.75H12.6014C13.1291 13.75 13.6352 13.5525 14.0084 13.2008C14.3815 12.8492 14.5911 12.3723 14.5911 11.875V3.125C14.5911 2.62772 14.3815 2.15081 14.0084 1.79917C13.6352 1.44754 13.1291 1.25 12.6014 1.25ZM3.31592 2.5H12.6014C12.7773 2.5 12.946 2.56585 13.0704 2.68306C13.1948 2.80027 13.2646 2.95924 13.2646 3.125V10.9937L12.0177 9.81875C11.6578 9.48054 11.1741 9.28498 10.666 9.2722C10.1578 9.25941 9.66376 9.43037 9.28516 9.75L7.36837 7.94375C6.99529 7.59262 6.48956 7.3954 5.96228 7.3954C5.435 7.3954 4.92927 7.59262 4.55619 7.94375L2.65267 9.74375V3.125C2.65267 2.95924 2.72255 2.80027 2.84693 2.68306C2.97131 2.56585 3.14001 2.5 3.31592 2.5ZM3.31592 12.5C3.14001 12.5 2.97131 12.4342 2.84693 12.3169C2.72255 12.1997 2.65267 12.0408 2.65267 11.875V11.5063L5.49801 8.825C5.55966 8.76642 5.63302 8.71992 5.71384 8.68819C5.79467 8.65646 5.88136 8.64013 5.96891 8.64013C6.05647 8.64013 6.14316 8.65646 6.22398 8.68819C6.30481 8.71992 6.37816 8.76642 6.43982 8.825L8.81425 11.0687C8.93051 11.1747 9.08382 11.2369 9.24536 11.2437H9.33158C9.49 11.2323 9.63962 11.1706 9.75606 11.0687L10.1407 10.7C10.2024 10.6414 10.2758 10.5949 10.3566 10.5632C10.4374 10.5315 10.5241 10.5151 10.6117 10.5151C10.6992 10.5151 10.7859 10.5315 10.8667 10.5632C10.9475 10.5949 11.0209 10.6414 11.0826 10.7L12.9065 12.4188C12.8143 12.471 12.709 12.499 12.6014 12.5H3.31592ZM10.1673 7.23125C10.5477 7.23125 10.9196 7.12495 11.2359 6.92579C11.5522 6.72663 11.7987 6.44355 11.9443 6.11236C12.0899 5.78117 12.128 5.41674 12.0537 5.06515C11.9795 4.71356 11.7963 4.3906 11.5273 4.13712C11.2583 3.88364 10.9156 3.71101 10.5425 3.64108C10.1694 3.57114 9.78267 3.60703 9.43122 3.74422C9.07976 3.8814 8.77936 4.11371 8.56801 4.41178C8.35666 4.70984 8.24386 5.06027 8.24386 5.41875C8.24386 5.89946 8.4465 6.36047 8.80721 6.70038C9.16792 7.04029 9.65715 7.23125 10.1673 7.23125ZM10.1673 4.73125C10.3116 4.73125 10.4526 4.77157 10.5726 4.84711C10.6926 4.92266 10.7861 5.03003 10.8413 5.15566C10.8965 5.28128 10.911 5.41951 10.8828 5.55287C10.8547 5.68624 10.7852 5.80874 10.6832 5.90489C10.5811 6.00103 10.4511 6.06651 10.3096 6.09304C10.1681 6.11957 10.0214 6.10595 9.88808 6.05392C9.75477 6.00188 9.64082 5.91376 9.56066 5.8007C9.48049 5.68765 9.4377 5.55472 9.4377 5.41875C9.4377 5.23641 9.51457 5.06155 9.65139 4.93261C9.78821 4.80368 9.97378 4.73125 10.1673 4.73125Z" fill="white"/>
</g>
</svg>
